<svg width="1057" height="174" viewBox="0 0 1057 174" fill="none" xmlns="http://www.w3.org/2000/svg">
<g clip-path="url(#clip0_2_8)">
<path d="M190.967 25.747C194.602 12.625 188.314 0 177.295 0C171.198 0 168.595 3.504 161.898 11.663C155.2 19.822 145.65 8.478 144 25.747C145.386 41.66 162.652 56.064 170.668 42.774C177.966 30.674 187.333 38.868 190.968 25.747H190.967Z" fill="#FFDD76"/>
<path d="M176.754 12C176.43 12 176.182 12.25 176.182 12.576C176.182 12.902 176.43 13.152 176.754 13.152H177.287L170.865 19.642L165.167 13.901C165.116 13.8465 165.054 13.8031 164.985 13.7735C164.916 13.7438 164.842 13.7285 164.767 13.7285C164.692 13.7285 164.618 13.7438 164.549 13.7735C164.48 13.8031 164.418 13.8465 164.367 13.901L158.078 20.16C158.024 20.2122 157.981 20.2748 157.951 20.3441C157.922 20.4133 157.907 20.4878 157.907 20.563C157.907 20.6382 157.922 20.7127 157.951 20.7819C157.981 20.8512 158.024 20.9138 158.078 20.966C158.129 21.021 158.191 21.0649 158.26 21.0949C158.329 21.1249 158.403 21.1404 158.478 21.1404C158.553 21.1404 158.627 21.1249 158.696 21.0949C158.765 21.0649 158.827 21.021 158.878 20.966L164.767 15.11L170.465 20.851C170.694 21.081 171.055 21.081 171.265 20.851L178.107 13.958V14.496C178.107 14.822 178.354 15.072 178.678 15.072C179.002 15.072 179.25 14.822 179.25 14.496V12.576C179.25 12.4604 179.216 12.3474 179.151 12.2516C179.087 12.1557 178.995 12.0813 178.888 12.038C178.82 12.0143 178.75 12.0015 178.678 12H178.659H176.754ZM175.058 21.408C174.982 21.4069 174.907 21.4211 174.837 21.4497C174.767 21.4783 174.703 21.5208 174.65 21.5745C174.596 21.6283 174.554 21.6923 174.526 21.7626C174.498 21.833 174.484 21.9083 174.486 21.984V35.424C174.486 35.75 174.734 36 175.058 36H178.488C178.812 36 179.059 35.75 179.059 35.424V21.984C179.061 21.9083 179.047 21.8331 179.019 21.7628C178.991 21.6926 178.949 21.6286 178.896 21.5749C178.842 21.5211 178.779 21.4787 178.709 21.45C178.639 21.4213 178.564 21.407 178.488 21.408H175.058ZM156.554 21.908C156.478 21.9078 156.402 21.9233 156.332 21.9537C156.263 21.984 156.2 22.0284 156.148 22.0842C156.096 22.14 156.056 22.2059 156.031 22.2778C156.005 22.3497 155.995 22.426 156.001 22.502V22.579C156.001 22.886 156.268 23.136 156.591 23.136C156.914 23.136 157.164 22.867 157.144 22.541V22.464C157.144 22.138 156.878 21.907 156.554 21.907V21.908ZM162.861 23.328C162.785 23.327 162.71 23.3413 162.64 23.37C162.57 23.3987 162.507 23.4411 162.453 23.4949C162.4 23.5486 162.358 23.6126 162.33 23.6828C162.302 23.7531 162.288 23.8283 162.29 23.904V35.424C162.29 35.75 162.537 36 162.861 36H166.291C166.615 36 166.863 35.75 166.863 35.424V23.904C166.865 23.8283 166.851 23.7531 166.823 23.6828C166.795 23.6126 166.753 23.5486 166.7 23.4949C166.646 23.4411 166.583 23.3987 166.513 23.37C166.443 23.3413 166.368 23.327 166.292 23.328H162.861ZM163.433 24.48H165.72V34.848H163.433V24.48ZM168.959 27.168C168.883 27.167 168.808 27.1813 168.738 27.21C168.668 27.2387 168.605 27.2811 168.551 27.3349C168.498 27.3886 168.456 27.4526 168.428 27.5228C168.4 27.5931 168.386 27.6683 168.388 27.744V35.424C168.388 35.75 168.635 36 168.959 36H172.389C172.714 36 172.961 35.75 172.961 35.424V27.744C172.963 27.6683 172.949 27.5931 172.921 27.5228C172.893 27.4526 172.851 27.3886 172.798 27.3349C172.744 27.2811 172.681 27.2387 172.611 27.21C172.541 27.1813 172.466 27.167 172.39 27.168H168.959ZM169.531 28.32H171.818V34.848H169.531V28.32ZM156.763 29.088C156.687 29.087 156.612 29.1013 156.542 29.13C156.472 29.1587 156.409 29.2011 156.355 29.2549C156.302 29.3086 156.26 29.3726 156.232 29.4428C156.204 29.5131 156.19 29.5883 156.192 29.664V35.424C156.192 35.75 156.439 36 156.763 36H160.193C160.517 36 160.765 35.75 160.765 35.424V29.664C160.767 29.5883 160.753 29.513 160.725 29.4426C160.697 29.3722 160.655 29.3083 160.601 29.2545C160.548 29.2008 160.484 29.1583 160.414 29.1297C160.344 29.1011 160.269 29.0869 160.193 29.088H156.763ZM157.335 30.24H159.622V34.848H157.335V30.24Z" fill="#63522B"/>
</g>
<path d="M56.6122 73.9091H46.8452V87H48.4304V75.3153H55.027V87H56.6122V73.9091ZM63.5939 87.2045C66.253 87.2045 68.0428 85.1847 68.0428 82.142C68.0428 79.0739 66.253 77.054 63.5939 77.054C60.9348 77.054 59.1451 79.0739 59.1451 82.142C59.1451 85.1847 60.9348 87.2045 63.5939 87.2045ZM63.5939 85.8494C61.574 85.8494 60.6536 84.1108 60.6536 82.142C60.6536 80.1733 61.574 78.4091 63.5939 78.4091C65.6138 78.4091 66.5343 80.1733 66.5343 82.142C66.5343 84.1108 65.6138 85.8494 63.5939 85.8494ZM70.3455 87H74.9734C76.9677 87 78.1694 85.875 78.1694 84.3665C78.1694 82.826 76.9996 81.995 75.9194 81.8352C77.0252 81.6051 77.8114 80.9851 77.8114 79.7898C77.8114 78.2237 76.4691 77.1818 74.3597 77.1818H70.3455V87ZM71.7773 85.6193V82.6023H74.9734C76.0089 82.6023 76.6353 83.2223 76.6353 84.2386C76.6353 85.0952 76.0089 85.6193 74.9734 85.6193H71.7773ZM71.7773 81.2983V78.5625H74.3597C75.5678 78.5625 76.3029 79.0675 76.3029 79.892C76.3029 80.7678 75.5678 81.2983 74.3597 81.2983H71.7773ZM81.9615 80.7358V77.1818H80.4529V87H84.5694C86.8706 87 88.1234 85.5938 88.1234 83.8295C88.1234 82.0398 86.8706 80.7358 84.5694 80.7358H81.9615ZM89.6831 87H91.1916V77.1818H89.6831V87ZM81.9615 82.142H84.5694C85.7647 82.142 86.6149 82.8707 86.6149 83.9062C86.6149 84.897 85.7647 85.5938 84.5694 85.5938H81.9615V82.142ZM93.9529 77.1818V87H105.893V77.1818H104.385V85.5938H100.677V77.1818H99.1689V85.5938H95.4615V77.1818H93.9529ZM112.765 87.2045C114.759 87.2045 116.216 86.2074 116.677 84.7244L115.219 84.3153C114.836 85.3381 113.947 85.8494 112.765 85.8494C110.994 85.8494 109.773 84.7053 109.703 82.6023H116.83V81.9631C116.83 78.3068 114.657 77.054 112.611 77.054C109.952 77.054 108.188 79.1506 108.188 82.1676C108.188 85.1847 109.927 87.2045 112.765 87.2045ZM109.703 81.2983C109.805 79.7706 110.885 78.4091 112.611 78.4091C114.248 78.4091 115.296 79.6364 115.296 81.2983H109.703ZM120.633 77.1818H119.125V87H120.633V82.8068H125.338V87H126.846V77.1818H125.338V81.4006H120.633V77.1818ZM131.11 84.7756V77.1818H129.601V87H131.366L136.07 79.4062V87H137.579V77.1818H135.84L131.11 84.7756ZM144.458 87.2045C146.452 87.2045 147.91 86.2074 148.37 84.7244L146.913 84.3153C146.529 85.3381 145.641 85.8494 144.458 85.8494C142.688 85.8494 141.467 84.7053 141.396 82.6023H148.523V81.9631C148.523 78.3068 146.35 77.054 144.305 77.054C141.646 77.054 139.881 79.1506 139.881 82.1676C139.881 85.1847 141.62 87.2045 144.458 87.2045ZM141.396 81.2983C141.499 79.7706 142.579 78.4091 144.305 78.4091C145.941 78.4091 146.989 79.6364 146.989 81.2983H141.396ZM159.128 78.4602C160.662 78.473 161.576 79.8793 161.774 81.3494H158.131V82.7557H161.787C161.627 84.2514 160.681 85.7599 159.128 85.7727C157.977 85.7599 156.903 84.7628 156.903 83.6506H155.42C155.42 85.6065 156.98 87.179 159.128 87.179C161.812 87.179 163.321 84.897 163.321 82.2955V81.9375C163.321 79.3359 161.812 77.054 159.128 77.054C157.21 77.054 155.42 78.6264 155.42 80.3267H156.903C156.903 79.3104 158.105 78.473 159.128 78.4602ZM169.608 90.3494H171.116V87.2045C173.775 87.2045 175.565 85.1847 175.565 82.142C175.565 79.0739 173.775 77.054 171.116 77.054V73.9091H169.608V77.054C166.949 77.054 165.159 79.0739 165.159 82.142C165.159 85.1847 166.949 87.2045 169.608 87.2045V90.3494ZM171.116 85.8494V78.4091C173.136 78.4091 174.056 80.1733 174.056 82.142C174.056 84.1108 173.136 85.8494 171.116 85.8494ZM169.608 85.8494C167.588 85.8494 166.667 84.1108 166.667 82.142C166.667 80.1733 167.588 78.4091 169.608 78.4091V85.8494ZM181.86 90.3494H183.368V87.2045C186.027 87.2045 187.817 85.1847 187.817 82.142C187.817 79.0739 186.027 77.054 183.368 77.054V73.9091H181.86V77.054C179.2 77.054 177.411 79.0739 177.411 82.142C177.411 85.1847 179.2 87.2045 181.86 87.2045V90.3494ZM183.368 85.8494V78.4091C185.388 78.4091 186.308 80.1733 186.308 82.142C186.308 84.1108 185.388 85.8494 183.368 85.8494ZM181.86 85.8494C179.84 85.8494 178.919 84.1108 178.919 82.142C178.919 80.1733 179.84 78.4091 181.86 78.4091V85.8494ZM194.239 87.2045C196.234 87.2045 197.691 86.2074 198.151 84.7244L196.694 84.3153C196.31 85.3381 195.422 85.8494 194.239 85.8494C192.469 85.8494 191.248 84.7053 191.178 82.6023H198.305V81.9631C198.305 78.3068 196.131 77.054 194.086 77.054C191.427 77.054 189.663 79.1506 189.663 82.1676C189.663 85.1847 191.401 87.2045 194.239 87.2045ZM191.178 81.2983C191.28 79.7706 192.36 78.4091 194.086 78.4091C195.722 78.4091 196.771 79.6364 196.771 81.2983H191.178ZM200.599 87H202.108V82.858H203.463L206.685 87H208.628L204.614 81.9119L208.577 77.1818H206.634L203.105 81.4517H202.108V77.1818H200.599V87ZM209.705 78.5881H212.952V87H214.461V78.5881H217.682V77.1818H209.705V78.5881ZM221.391 84.7756V77.1818H219.883V87H221.647L226.351 79.4062V87H227.86V77.1818H226.121L221.391 84.7756ZM230.623 87H235.251C237.245 87 238.447 85.875 238.447 84.3665C238.447 82.826 237.277 81.995 236.197 81.8352C237.303 81.6051 238.089 80.9851 238.089 79.7898C238.089 78.2237 236.746 77.1818 234.637 77.1818H230.623V87ZM232.055 85.6193V82.6023H235.251C236.286 82.6023 236.913 83.2223 236.913 84.2386C236.913 85.0952 236.286 85.6193 235.251 85.6193H232.055ZM232.055 81.2983V78.5625H234.637C235.845 78.5625 236.58 79.0675 236.58 79.892C236.58 80.7678 235.845 81.2983 234.637 81.2983H232.055ZM242.239 77.1818H240.73V87H242.239V82.8068H246.943V87H248.452V77.1818H246.943V81.4006H242.239V77.1818ZM255.195 87.2045C257.855 87.2045 259.644 85.1847 259.644 82.142C259.644 79.0739 257.855 77.054 255.195 77.054C252.536 77.054 250.747 79.0739 250.747 82.142C250.747 85.1847 252.536 87.2045 255.195 87.2045ZM255.195 85.8494C253.176 85.8494 252.255 84.1108 252.255 82.142C252.255 80.1733 253.176 78.4091 255.195 78.4091C257.215 78.4091 258.136 80.1733 258.136 82.142C258.136 84.1108 257.215 85.8494 255.195 85.8494ZM265.936 87.2045C268.109 87.2045 269.541 85.875 269.797 84.1364H268.288C268.007 85.2102 267.112 85.8494 265.936 85.8494C264.146 85.8494 262.995 84.3665 262.995 82.0909C262.995 79.8665 264.172 78.4091 265.936 78.4091C267.265 78.4091 268.058 79.2273 268.288 80.1222H269.797C269.541 78.2812 267.981 77.054 265.91 77.054C263.251 77.054 261.487 79.1506 261.487 82.142C261.487 85.0824 263.174 87.2045 265.936 87.2045ZM271.228 78.5881H274.475V87H275.984V78.5881H279.206V77.1818H271.228V78.5881ZM282.915 84.7756V77.1818H281.406V87H283.17L287.875 79.4062V87H289.383V77.1818H287.645L282.915 84.7756Z" fill="#212B31"/>
<path d="M10.5405 116.364C10.7905 118.5 12.1087 120.159 14.8814 120.159C17.5859 120.159 19.3587 118.068 19.3587 114.864V113.523C19.3587 110.318 17.5859 108.205 14.745 108.205C12.1314 108.205 10.7678 109.818 10.5405 112.045H11.995C12.2223 110.432 13.0178 109.477 14.745 109.477C16.7223 109.477 17.9041 111.136 17.9041 113.545V113.705H13.3132V114.955H17.9041C17.87 117.085 16.8473 118.909 14.8814 118.909C12.995 118.909 12.245 118 11.995 116.364H10.5405ZM25.093 122.977H26.4339V120.182C28.7976 120.182 30.3885 118.386 30.3885 115.682C30.3885 112.955 28.7976 111.159 26.4339 111.159V108.364H25.093V111.159C22.7294 111.159 21.1385 112.955 21.1385 115.682C21.1385 118.386 22.7294 120.182 25.093 120.182V122.977ZM26.4339 118.977V112.364C28.2294 112.364 29.0476 113.932 29.0476 115.682C29.0476 117.432 28.2294 118.977 26.4339 118.977ZM25.093 118.977C23.2976 118.977 22.4794 117.432 22.4794 115.682C22.4794 113.932 23.2976 112.364 25.093 112.364V118.977ZM35.9837 122.977H37.3246V120.182C39.6882 120.182 41.2791 118.386 41.2791 115.682C41.2791 112.955 39.6882 111.159 37.3246 111.159V108.364H35.9837V111.159C33.62 111.159 32.0291 112.955 32.0291 115.682C32.0291 118.386 33.62 120.182 35.9837 120.182V122.977ZM37.3246 118.977V112.364C39.12 112.364 39.9382 113.932 39.9382 115.682C39.9382 117.432 39.12 118.977 37.3246 118.977ZM35.9837 118.977C34.1882 118.977 33.37 117.432 33.37 115.682C33.37 113.932 34.1882 112.364 35.9837 112.364V118.977ZM46.9879 120.182C48.7607 120.182 50.0561 119.295 50.4652 117.977L49.1697 117.614C48.8288 118.523 48.0391 118.977 46.9879 118.977C45.4141 118.977 44.3288 117.96 44.2663 116.091H50.6016V115.523C50.6016 112.273 48.6697 111.159 46.8516 111.159C44.4879 111.159 42.9197 113.023 42.9197 115.705C42.9197 118.386 44.4652 120.182 46.9879 120.182ZM44.2663 114.932C44.3572 113.574 45.3175 112.364 46.8516 112.364C48.3061 112.364 49.2379 113.455 49.2379 114.932H44.2663ZM52.6413 120H53.9822V116.318H55.1868L58.0504 120H59.7777L56.2095 115.477L59.7322 111.273H58.005L54.8686 115.068H53.9822V111.273H52.6413V120ZM60.7351 112.523H63.6214V120H64.9624V112.523H67.826V111.273H60.7351V112.523ZM71.1229 118.023V111.273H69.782V120H71.3501L75.532 113.25V120H76.8729V111.273H75.3274L71.1229 118.023ZM79.3288 120H83.4425C85.2152 120 86.2834 119 86.2834 117.659C86.2834 116.29 85.2436 115.551 84.2834 115.409C85.2663 115.205 85.9652 114.653 85.9652 113.591C85.9652 112.199 84.772 111.273 82.897 111.273H79.3288V120ZM80.6016 118.773V116.091H83.4425C84.3629 116.091 84.9197 116.642 84.9197 117.545C84.9197 118.307 84.3629 118.773 83.4425 118.773H80.6016ZM80.6016 114.932V112.5H82.897C83.9709 112.5 84.6243 112.949 84.6243 113.682C84.6243 114.46 83.9709 114.932 82.897 114.932H80.6016ZM89.6541 111.273H88.3132V120H89.6541V116.273H93.8359V120H95.1768V111.273H93.8359V115.023H89.6541V111.273ZM98.9666 114.432V111.273H97.6257V120H101.285C103.33 120 104.444 118.75 104.444 117.182C104.444 115.591 103.33 114.432 101.285 114.432H98.9666ZM105.83 120H107.171V111.273H105.83V120ZM98.9666 115.682H101.285C102.347 115.682 103.103 116.33 103.103 117.25C103.103 118.131 102.347 118.75 101.285 118.75H98.9666V115.682ZM113.285 120.182C115.058 120.182 116.353 119.295 116.762 117.977L115.467 117.614C115.126 118.523 114.336 118.977 113.285 118.977C111.711 118.977 110.626 117.96 110.563 116.091H116.898V115.523C116.898 112.273 114.967 111.159 113.148 111.159C110.785 111.159 109.217 113.023 109.217 115.705C109.217 118.386 110.762 120.182 113.285 120.182ZM110.563 114.932C110.654 113.574 111.614 112.364 113.148 112.364C114.603 112.364 115.535 113.455 115.535 114.932H110.563ZM123.438 120H124.779V112.523H128.961V120H130.302V111.273H123.438V120ZM132.751 123.273H134.092V118.659H134.205C134.501 119.136 135.069 120.182 136.751 120.182C138.933 120.182 140.455 118.432 140.455 115.659C140.455 112.909 138.933 111.159 136.728 111.159C135.023 111.159 134.501 112.205 134.205 112.659H134.046V111.273H132.751V123.273ZM134.069 115.636C134.069 113.682 134.933 112.364 136.569 112.364C138.273 112.364 139.114 113.795 139.114 115.636C139.114 117.5 138.251 118.977 136.569 118.977C134.955 118.977 134.069 117.614 134.069 115.636ZM146.046 120.182C148.41 120.182 150.001 118.386 150.001 115.682C150.001 112.955 148.41 111.159 146.046 111.159C143.683 111.159 142.092 112.955 142.092 115.682C142.092 118.386 143.683 120.182 146.046 120.182ZM146.046 118.977C144.251 118.977 143.433 117.432 143.433 115.682C143.433 113.932 144.251 112.364 146.046 112.364C147.842 112.364 148.66 113.932 148.66 115.682C148.66 117.432 147.842 118.977 146.046 118.977ZM155.707 120.182C157.479 120.182 158.775 119.295 159.184 117.977L157.888 117.614C157.548 118.523 156.758 118.977 155.707 118.977C154.133 118.977 153.048 117.96 152.985 116.091H159.32V115.523C159.32 112.273 157.388 111.159 155.57 111.159C153.207 111.159 151.638 113.023 151.638 115.705C151.638 118.386 153.184 120.182 155.707 120.182ZM152.985 114.932C153.076 113.574 154.036 112.364 155.57 112.364C157.025 112.364 157.957 113.455 157.957 114.932H152.985ZM161.36 120H162.701V116.318H163.906L166.769 120H168.496L164.928 115.477L168.451 111.273H166.724L163.587 115.068H162.701V111.273H161.36V120ZM169.454 112.523H172.34V120H173.681V112.523H176.545V111.273H169.454V112.523ZM179.842 114.432V111.273H178.501V120H182.16C184.205 120 185.319 118.75 185.319 117.182C185.319 115.591 184.205 114.432 182.16 114.432H179.842ZM186.705 120H188.046V111.273H186.705V120ZM179.842 115.682H182.16C183.222 115.682 183.978 116.33 183.978 117.25C183.978 118.131 183.222 118.75 182.16 118.75H179.842V115.682ZM198.546 120.182C200.478 120.182 201.751 119 201.978 117.455H200.637C200.387 118.409 199.592 118.977 198.546 118.977C196.955 118.977 195.933 117.659 195.933 115.636C195.933 113.659 196.978 112.364 198.546 112.364C199.728 112.364 200.433 113.091 200.637 113.886H201.978C201.751 112.25 200.364 111.159 198.523 111.159C196.16 111.159 194.592 113.023 194.592 115.682C194.592 118.295 196.092 120.182 198.546 120.182ZM203.251 112.523H206.137V120H207.478V112.523H210.342V111.273H203.251V112.523ZM215.39 120.182C217.754 120.182 219.344 118.386 219.344 115.682C219.344 112.955 217.754 111.159 215.39 111.159C213.026 111.159 211.435 112.955 211.435 115.682C211.435 118.386 213.026 120.182 215.39 120.182ZM215.39 118.977C213.594 118.977 212.776 117.432 212.776 115.682C212.776 113.932 213.594 112.364 215.39 112.364C217.185 112.364 218.004 113.932 218.004 115.682C218.004 117.432 217.185 118.977 215.39 118.977ZM226.641 120H227.914V111.273H224.323C222.442 111.273 221.3 112.256 221.3 113.864C221.3 115.062 221.903 115.915 222.954 116.273L220.823 120H222.278L224.3 116.455H226.641V120ZM226.641 115.205H224.164C223.215 115.205 222.641 114.699 222.641 113.864C222.641 113.017 223.278 112.5 224.323 112.5H226.641V115.205ZM229.188 112.523H232.075V120H233.415V112.523H236.279V111.273H229.188V112.523ZM241.803 122.5H243.144V120H249.599V122.5H250.94V118.75H249.599V111.273H244.053L243.758 114.727C243.548 117.17 243.235 118.011 242.531 118.75H241.803V122.5ZM244.053 118.75C244.667 117.943 244.888 116.551 245.076 114.727L245.303 112.523H248.258V118.75H244.053ZM256.379 120.182C258.151 120.182 259.447 119.295 259.856 117.977L258.56 117.614C258.219 118.523 257.43 118.977 256.379 118.977C254.805 118.977 253.719 117.96 253.657 116.091H259.992V115.523C259.992 112.273 258.06 111.159 256.242 111.159C253.879 111.159 252.31 113.023 252.31 115.705C252.31 118.386 253.856 120.182 256.379 120.182ZM253.657 114.932C253.748 113.574 254.708 112.364 256.242 112.364C257.697 112.364 258.629 113.455 258.629 114.932H253.657ZM262.032 111.273V120H272.646V111.273H271.305V118.75H268.009V111.273H266.668V118.75H263.373V111.273H262.032ZM278.754 120.182C280.526 120.182 281.822 119.295 282.231 117.977L280.935 117.614C280.594 118.523 279.805 118.977 278.754 118.977C277.18 118.977 276.094 117.96 276.032 116.091H282.367V115.523C282.367 112.273 280.435 111.159 278.617 111.159C276.254 111.159 274.685 113.023 274.685 115.705C274.685 118.386 276.231 120.182 278.754 120.182ZM276.032 114.932C276.123 113.574 277.083 112.364 278.617 112.364C280.072 112.364 281.004 113.455 281.004 114.932H276.032ZM284.407 120H288.521C290.293 120 291.362 119 291.362 117.659C291.362 116.29 290.322 115.551 289.362 115.409C290.344 115.205 291.043 114.653 291.043 113.591C291.043 112.199 289.85 111.273 287.975 111.273H284.407V120ZM285.68 118.773V116.091H288.521C289.441 116.091 289.998 116.642 289.998 117.545C289.998 118.307 289.441 118.773 288.521 118.773H285.68ZM285.68 114.932V112.5H287.975C289.049 112.5 289.702 112.949 289.702 113.682C289.702 114.46 289.049 114.932 287.975 114.932H285.68ZM292.619 120H293.073C295.005 120 295.562 118.5 295.687 115.636L295.823 112.523H299.028V120H300.369V111.273H294.55L294.391 115.136C294.278 118.068 293.982 118.75 292.937 118.75H292.619V120ZM306.488 120.182C308.261 120.182 309.556 119.295 309.965 117.977L308.67 117.614C308.329 118.523 307.539 118.977 306.488 118.977C304.914 118.977 303.829 117.96 303.766 116.091H310.102V115.523C310.102 112.273 308.17 111.159 306.352 111.159C303.988 111.159 302.42 113.023 302.42 115.705C302.42 118.386 303.965 120.182 306.488 120.182ZM303.766 114.932C303.857 113.574 304.817 112.364 306.352 112.364C307.806 112.364 308.738 113.455 308.738 114.932H303.766ZM75.7244 142.023V135.273H74.3835V144H75.9517L80.1335 137.25V144H81.4744V135.273H79.929L75.7244 142.023ZM87.8849 141.773C87.9304 143.205 89.2997 144.182 91.1577 144.182C93.0668 144.182 94.4531 143.159 94.4531 141.568C94.4531 140.477 93.7997 139.591 92.8168 139.523V139.432C93.6463 139.176 94.2713 138.574 94.2713 137.591C94.2713 136.21 93.0895 135.159 91.2486 135.159C89.4304 135.159 88.1349 136.159 88.0895 137.568H89.4986C89.5384 136.847 90.294 136.341 91.3168 136.341C92.3338 136.341 92.9077 136.858 92.9077 137.636C92.9077 138.364 92.4077 138.909 91.3395 138.909H89.8395V140.114H91.3395C92.4077 140.114 93.0895 140.699 93.0895 141.568C93.0895 142.562 92.2088 142.977 91.1349 142.977C90.0838 142.977 89.3793 142.562 89.3168 141.773H87.8849ZM98.9048 144.205C100.428 144.205 101.223 143.386 101.496 142.818H101.564V144H102.905V138.25C102.905 135.477 100.791 135.159 99.6776 135.159C98.3594 135.159 96.8594 135.614 96.1776 137.205L97.4503 137.659C97.7457 137.023 98.4446 136.341 99.723 136.341C100.956 136.341 101.564 136.994 101.564 138.114V138.159C101.564 138.807 100.905 138.75 99.3139 138.955C97.6946 139.165 95.9276 139.523 95.9276 141.523C95.9276 143.227 97.2457 144.205 98.9048 144.205ZM99.1094 143C98.0412 143 97.2685 142.523 97.2685 141.591C97.2685 140.568 98.2003 140.25 99.2457 140.114C99.8139 140.045 101.337 139.886 101.564 139.614V140.841C101.564 141.932 100.7 143 99.1094 143ZM105.352 144H109.466C111.239 144 112.307 143 112.307 141.659C112.307 140.29 111.267 139.551 110.307 139.409C111.29 139.205 111.989 138.653 111.989 137.591C111.989 136.199 110.795 135.273 108.92 135.273H105.352V144ZM106.625 142.773V140.091H109.466C110.386 140.091 110.943 140.642 110.943 141.545C110.943 142.307 110.386 142.773 109.466 142.773H106.625ZM106.625 138.932V136.5H108.92C109.994 136.5 110.648 136.949 110.648 137.682C110.648 138.46 109.994 138.932 108.92 138.932H106.625ZM117.996 144.182C119.768 144.182 121.064 143.295 121.473 141.977L120.178 141.614C119.837 142.523 119.047 142.977 117.996 142.977C116.422 142.977 115.337 141.96 115.274 140.091H121.609V139.523C121.609 136.273 119.678 135.159 117.859 135.159C115.496 135.159 113.928 137.023 113.928 139.705C113.928 142.386 115.473 144.182 117.996 144.182ZM115.274 138.932C115.365 137.574 116.325 136.364 117.859 136.364C119.314 136.364 120.246 137.455 120.246 138.932H115.274ZM123.649 147.273H124.99V142.659H125.104C125.399 143.136 125.967 144.182 127.649 144.182C129.831 144.182 131.354 142.432 131.354 139.659C131.354 136.909 129.831 135.159 127.626 135.159C125.922 135.159 125.399 136.205 125.104 136.659H124.945V135.273H123.649V147.273ZM124.967 139.636C124.967 137.682 125.831 136.364 127.467 136.364C129.172 136.364 130.013 137.795 130.013 139.636C130.013 141.5 129.149 142.977 127.467 142.977C125.854 142.977 124.967 141.614 124.967 139.636ZM133.399 135.273V144H144.013V135.273H142.672V142.75H139.376V135.273H138.036V142.75H134.74V135.273H133.399ZM149.03 144.205C150.553 144.205 151.348 143.386 151.621 142.818H151.689V144H153.03V138.25C153.03 135.477 150.916 135.159 149.803 135.159C148.484 135.159 146.984 135.614 146.303 137.205L147.575 137.659C147.871 137.023 148.57 136.341 149.848 136.341C151.081 136.341 151.689 136.994 151.689 138.114V138.159C151.689 138.807 151.03 138.75 149.439 138.955C147.82 139.165 146.053 139.523 146.053 141.523C146.053 143.227 147.371 144.205 149.03 144.205ZM149.234 143C148.166 143 147.393 142.523 147.393 141.591C147.393 140.568 148.325 140.25 149.371 140.114C149.939 140.045 151.462 139.886 151.689 139.614V140.841C151.689 141.932 150.825 143 149.234 143ZM156.182 135.273H154.841V144H156.182V140.341H158.42C158.659 142.676 160.176 144.182 162.341 144.182C164.705 144.182 166.295 142.386 166.295 139.682C166.295 136.955 164.705 135.159 162.341 135.159C160.153 135.159 158.625 136.699 158.415 139.091H156.182V135.273ZM162.341 142.977C160.545 142.977 159.727 141.432 159.727 139.682C159.727 137.932 160.545 136.364 162.341 136.364C164.136 136.364 164.955 137.932 164.955 139.682C164.955 141.432 164.136 142.977 162.341 142.977ZM167.337 136.523H170.223V144H171.564V136.523H174.428V135.273H167.337V136.523ZM179.476 144.182C181.408 144.182 182.68 143 182.908 141.455H181.567C181.317 142.409 180.521 142.977 179.476 142.977C177.885 142.977 176.862 141.659 176.862 139.636C176.862 137.659 177.908 136.364 179.476 136.364C180.658 136.364 181.362 137.091 181.567 137.886H182.908C182.68 136.25 181.294 135.159 179.453 135.159C177.089 135.159 175.521 137.023 175.521 139.682C175.521 142.295 177.021 144.182 179.476 144.182ZM190.118 144H191.391V135.273H187.8C185.919 135.273 184.777 136.256 184.777 137.864C184.777 139.062 185.379 139.915 186.43 140.273L184.3 144H185.754L187.777 140.455H190.118V144ZM190.118 139.205H187.641C186.692 139.205 186.118 138.699 186.118 137.864C186.118 137.017 186.754 136.5 187.8 136.5H190.118V139.205ZM198.352 144H202.466C204.239 144 205.307 143 205.307 141.659C205.307 140.29 204.267 139.551 203.307 139.409C204.29 139.205 204.989 138.653 204.989 137.591C204.989 136.199 203.795 135.273 201.92 135.273H198.352V144ZM199.625 142.773V140.091H202.466C203.386 140.091 203.943 140.642 203.943 141.545C203.943 142.307 203.386 142.773 202.466 142.773H199.625ZM199.625 138.932V136.5H201.92C202.994 136.5 203.648 136.949 203.648 137.682C203.648 138.46 202.994 138.932 201.92 138.932H199.625ZM215.382 144.182C217.314 144.182 218.587 143 218.814 141.455H217.473C217.223 142.409 216.428 142.977 215.382 142.977C213.791 142.977 212.768 141.659 212.768 139.636C212.768 137.659 213.814 136.364 215.382 136.364C216.564 136.364 217.268 137.091 217.473 137.886H218.814C218.587 136.25 217.2 135.159 215.359 135.159C212.996 135.159 211.428 137.023 211.428 139.682C211.428 142.295 212.928 144.182 215.382 144.182ZM220.774 147.273H222.115V142.659H222.229C222.524 143.136 223.092 144.182 224.774 144.182C226.956 144.182 228.479 142.432 228.479 139.659C228.479 136.909 226.956 135.159 224.751 135.159C223.047 135.159 222.524 136.205 222.229 136.659H222.07V135.273H220.774V147.273ZM222.092 139.636C222.092 137.682 222.956 136.364 224.592 136.364C226.297 136.364 227.138 137.795 227.138 139.636C227.138 141.5 226.274 142.977 224.592 142.977C222.979 142.977 222.092 141.614 222.092 139.636ZM234.07 144.182C236.433 144.182 238.024 142.386 238.024 139.682C238.024 136.955 236.433 135.159 234.07 135.159C231.706 135.159 230.115 136.955 230.115 139.682C230.115 142.386 231.706 144.182 234.07 144.182ZM234.07 142.977C232.274 142.977 231.456 141.432 231.456 139.682C231.456 137.932 232.274 136.364 234.07 136.364C235.865 136.364 236.683 137.932 236.683 139.682C236.683 141.432 235.865 142.977 234.07 142.977ZM240.071 144H241.412V140.318H242.616L245.48 144H247.207L243.639 139.477L247.162 135.273H245.435L242.298 139.068H241.412V135.273H240.071V144ZM249.642 144.091C250.205 144.091 250.665 143.631 250.665 143.068C250.665 142.506 250.205 142.045 249.642 142.045C249.08 142.045 248.619 142.506 248.619 143.068C248.619 143.631 249.08 144.091 249.642 144.091Z" fill="#72787D"/>
<g clip-path="url(#clip1_2_8)">
<path d="M538.295 48C549.314 48 555.602 35.375 551.967 22.253C548.333 9.13096 538.966 17.326 531.667 5.22596C523.654 -8.06404 506.387 6.33896 505 22.253C505.53 30.835 512.93 48 538.295 48Z" fill="#FFDD76"/>
<path d="M529 12C527.83 12 526.784 12.78 526.084 14.01L523.428 18.66L525.045 19.62L527.67 15C528.143 14.167 528.62 13.92 528.998 13.92C529.378 13.92 529.854 14.167 530.326 15L533.213 20.07L531.741 21L536.36 23.88V18.12L534.8 19.08L531.914 14.01C531.215 12.78 530.17 12 529 12ZM523.399 20.61L518.78 23.49L520.195 24.36L517.625 28.89C516.929 30.116 516.774 31.474 517.365 32.52C517.957 33.566 519.155 34.08 520.541 34.08H526.228V32.16H520.541C519.585 32.16 519.131 31.845 518.953 31.53C518.777 31.215 518.741 30.683 519.213 29.85L521.753 25.35L523.399 26.37V20.61ZM538.122 25.02L536.562 26.01L538.786 29.85C539.262 30.686 539.222 31.215 539.046 31.53C538.869 31.845 538.414 32.16 537.458 32.16H532.695V30.24L528.075 33.12L532.695 36V34.08H537.458C538.844 34.08 540.042 33.566 540.633 32.52C541.225 31.474 541.073 30.12 540.373 28.89V28.86L538.122 25.02Z" fill="#63522B"/>
</g>
<path d="M462.598 78C462.112 75.3153 459.964 73.7301 457.331 73.7301C453.981 73.7301 451.552 76.3125 451.552 80.4545C451.552 84.5966 453.981 87.179 457.331 87.179C459.964 87.179 462.112 85.5938 462.598 82.9091H461.013C460.629 84.7244 459.069 85.696 457.331 85.696C454.953 85.696 453.086 83.8551 453.086 80.4545C453.086 77.054 454.953 75.2131 457.331 75.2131C459.069 75.2131 460.629 76.1847 461.013 78H462.598ZM466.463 77.1818H464.955V87H466.463V82.8068H471.168V87H472.676V77.1818H471.168V81.4006H466.463V77.1818ZM476.94 84.7756V77.1818H475.431V87H477.196L481.9 79.4062V87H483.409V77.1818H481.67L476.94 84.7756ZM485.558 87H487.373L490.723 82.7812H491.49V87H492.998V82.7812H493.765L497.089 87H498.905L494.942 82.0142L498.854 77.1818H497.064L493.791 81.375H492.998V77.1818H491.49V81.375H490.672L487.399 77.1818H485.609L489.547 82.0142L485.558 87ZM504.773 87.2045C506.767 87.2045 508.224 86.2074 508.684 84.7244L507.227 84.3153C506.844 85.3381 505.955 85.8494 504.773 85.8494C503.002 85.8494 501.781 84.7053 501.711 82.6023H508.838V81.9631C508.838 78.3068 506.665 77.054 504.619 77.054C501.96 77.054 500.196 79.1506 500.196 82.1676C500.196 85.1847 501.934 87.2045 504.773 87.2045ZM501.711 81.2983C501.813 79.7706 502.893 78.4091 504.619 78.4091C506.256 78.4091 507.304 79.6364 507.304 81.2983H501.711ZM512.641 77.1818H511.133V87H512.641V82.8068H517.346V87H518.854V77.1818H517.346V81.4006H512.641V77.1818ZM523.118 84.7756V77.1818H521.609V87H523.373L528.078 79.4062V87H529.586V77.1818H527.848L523.118 84.7756ZM536.466 87.2045C538.46 87.2045 539.918 86.2074 540.378 84.7244L538.92 84.3153C538.537 85.3381 537.648 85.8494 536.466 85.8494C534.695 85.8494 533.474 84.7053 533.404 82.6023H540.531V81.9631C540.531 78.3068 538.358 77.054 536.312 77.054C533.653 77.054 531.889 79.1506 531.889 82.1676C531.889 85.1847 533.628 87.2045 536.466 87.2045ZM533.404 81.2983C533.506 79.7706 534.587 78.4091 536.312 78.4091C537.949 78.4091 538.997 79.6364 538.997 81.2983H533.404ZM547.888 87H549.397V78.5881H554.102V87H555.61V77.1818H547.888V87ZM562.354 87.2045C565.013 87.2045 566.803 85.1847 566.803 82.142C566.803 79.0739 565.013 77.054 562.354 77.054C559.695 77.054 557.905 79.0739 557.905 82.142C557.905 85.1847 559.695 87.2045 562.354 87.2045ZM562.354 85.8494C560.334 85.8494 559.413 84.1108 559.413 82.142C559.413 80.1733 560.334 78.4091 562.354 78.4091C564.374 78.4091 565.294 80.1733 565.294 82.142C565.294 84.1108 564.374 85.8494 562.354 85.8494ZM567.822 78.5881H571.069V87H572.578V78.5881H575.799V77.1818H567.822V78.5881ZM581.607 87.2045C583.601 87.2045 585.058 86.2074 585.518 84.7244L584.061 84.3153C583.678 85.3381 582.789 85.8494 581.607 85.8494C579.836 85.8494 578.615 84.7053 578.545 82.6023H585.672V81.9631C585.672 78.3068 583.499 77.054 581.453 77.054C578.794 77.054 577.03 79.1506 577.03 82.1676C577.03 85.1847 578.768 87.2045 581.607 87.2045ZM578.545 81.2983C578.647 79.7706 579.727 78.4091 581.453 78.4091C583.089 78.4091 584.138 79.6364 584.138 81.2983H578.545ZM587.967 90.6818H589.475V85.4915H589.603C589.935 86.0284 590.575 87.2045 592.467 87.2045C594.921 87.2045 596.634 85.2358 596.634 82.1165C596.634 79.0227 594.921 77.054 592.441 77.054C590.523 77.054 589.935 78.2301 589.603 78.7415H589.424V77.1818H587.967V90.6818ZM589.45 82.0909C589.45 79.892 590.421 78.4091 592.262 78.4091C594.18 78.4091 595.126 80.0199 595.126 82.0909C595.126 84.1875 594.154 85.8494 592.262 85.8494C590.447 85.8494 589.45 84.3153 589.45 82.0909ZM600.444 80.7358V77.1818H598.935V87H603.052C605.353 87 606.606 85.5938 606.606 83.8295C606.606 82.0398 605.353 80.7358 603.052 80.7358H600.444ZM600.444 82.142H603.052C604.247 82.142 605.097 82.8707 605.097 83.9062C605.097 84.897 604.247 85.5938 603.052 85.5938H600.444V82.142Z" fill="#212B31"/>
<path d="M386.531 109.614H390.19V120H391.599V109.614H395.258V108.364H386.531V109.614ZM408.254 118.75H406.958V111.273H405.617V118.75H402.322V111.273H400.981V118.75H397.685V111.273H396.344V120H406.708V122.5H408.094L408.254 118.75ZM412.772 120.205C414.295 120.205 415.09 119.386 415.363 118.818H415.431V120H416.772V114.25C416.772 111.477 414.658 111.159 413.545 111.159C412.227 111.159 410.727 111.614 410.045 113.205L411.317 113.659C411.613 113.023 412.312 112.341 413.59 112.341C414.823 112.341 415.431 112.994 415.431 114.114V114.159C415.431 114.807 414.772 114.75 413.181 114.955C411.562 115.165 409.795 115.523 409.795 117.523C409.795 119.227 411.113 120.205 412.772 120.205ZM412.977 119C411.908 119 411.136 118.523 411.136 117.591C411.136 116.568 412.067 116.25 413.113 116.114C413.681 116.045 415.204 115.886 415.431 115.614V116.841C415.431 117.932 414.567 119 412.977 119ZM418.032 112.523H420.918V120H422.259V112.523H425.123V111.273H418.032V112.523ZM430.285 120.182C432.058 120.182 433.353 119.295 433.762 117.977L432.467 117.614C432.126 118.523 431.336 118.977 430.285 118.977C428.711 118.977 427.626 117.96 427.563 116.091H433.898V115.523C433.898 112.273 431.967 111.159 430.148 111.159C427.785 111.159 426.217 113.023 426.217 115.705C426.217 118.386 427.762 120.182 430.285 120.182ZM427.563 114.932C427.654 113.574 428.614 112.364 430.148 112.364C431.603 112.364 432.535 113.455 432.535 114.932H427.563ZM435.165 120H435.62C437.552 120 438.109 118.5 438.234 115.636L438.37 112.523H441.575V120H442.915V111.273H437.097L436.938 115.136C436.825 118.068 436.529 118.75 435.484 118.75H435.165V120ZM446.717 114.432V111.273H445.376V120H449.035C451.08 120 452.194 118.75 452.194 117.182C452.194 115.591 451.08 114.432 449.035 114.432H446.717ZM446.717 115.682H449.035C450.097 115.682 450.853 116.33 450.853 117.25C450.853 118.131 450.097 118.75 449.035 118.75H446.717V115.682ZM455.576 111.273H454.235V120H455.576V116.273H459.758V120H461.099V111.273H459.758V115.023H455.576V111.273ZM467.093 120.182C469.457 120.182 471.048 118.386 471.048 115.682C471.048 112.955 469.457 111.159 467.093 111.159C464.729 111.159 463.138 112.955 463.138 115.682C463.138 118.386 464.729 120.182 467.093 120.182ZM467.093 118.977C465.298 118.977 464.479 117.432 464.479 115.682C464.479 113.932 465.298 112.364 467.093 112.364C468.888 112.364 469.707 113.932 469.707 115.682C469.707 117.432 468.888 118.977 467.093 118.977ZM481.14 120.182C483.504 120.182 485.094 118.386 485.094 115.682C485.094 112.955 483.504 111.159 481.14 111.159C478.776 111.159 477.185 112.955 477.185 115.682C477.185 118.386 478.776 120.182 481.14 120.182ZM481.14 118.977C479.344 118.977 478.526 117.432 478.526 115.682C478.526 113.932 479.344 112.364 481.14 112.364C482.935 112.364 483.754 113.932 483.754 115.682C483.754 117.432 482.935 118.977 481.14 118.977ZM486.001 112.523H488.887V120H490.228V112.523H493.092V111.273H486.001V112.523ZM498.14 120.182C500.072 120.182 501.344 119 501.572 117.455H500.231C499.981 118.409 499.185 118.977 498.14 118.977C496.549 118.977 495.526 117.659 495.526 115.636C495.526 113.659 496.572 112.364 498.14 112.364C499.322 112.364 500.026 113.091 500.231 113.886H501.572C501.344 112.25 499.958 111.159 498.117 111.159C495.754 111.159 494.185 113.023 494.185 115.682C494.185 118.295 495.685 120.182 498.14 120.182ZM502.759 120H503.214C505.146 120 505.702 118.5 505.827 115.636L505.964 112.523H509.168V120H510.509V111.273H504.691L504.532 115.136C504.418 118.068 504.123 118.75 503.077 118.75H502.759V120ZM516.629 120.182C518.401 120.182 519.697 119.295 520.106 117.977L518.81 117.614C518.469 118.523 517.68 118.977 516.629 118.977C515.055 118.977 513.969 117.96 513.907 116.091H520.242V115.523C520.242 112.273 518.31 111.159 516.492 111.159C514.129 111.159 512.56 113.023 512.56 115.705C512.56 118.386 514.106 120.182 516.629 120.182ZM513.907 114.932C513.998 113.574 514.958 112.364 516.492 112.364C517.947 112.364 518.879 113.455 518.879 114.932H513.907ZM521.502 120H523.116L526.093 116.25H526.775V120H528.116V116.25H528.798L531.752 120H533.366L529.843 115.568L533.32 111.273H531.729L528.82 115H528.116V111.273H526.775V115H526.048L523.138 111.273H521.548L525.048 115.568L521.502 120ZM536.623 118.023V111.273H535.282V120H536.85L541.032 113.25V120H542.373V111.273H540.827L536.623 118.023ZM544.829 120H548.942C550.715 120 551.783 119 551.783 117.659C551.783 116.29 550.744 115.551 549.783 115.409C550.766 115.205 551.465 114.653 551.465 113.591C551.465 112.199 550.272 111.273 548.397 111.273H544.829V120ZM546.102 118.773V116.091H548.942C549.863 116.091 550.42 116.642 550.42 117.545C550.42 118.307 549.863 118.773 548.942 118.773H546.102ZM546.102 114.932V112.5H548.397C549.471 112.5 550.124 112.949 550.124 113.682C550.124 114.46 549.471 114.932 548.397 114.932H546.102ZM556.381 120.205C557.904 120.205 558.7 119.386 558.972 118.818H559.04V120H560.381V114.25C560.381 111.477 558.268 111.159 557.154 111.159C555.836 111.159 554.336 111.614 553.654 113.205L554.927 113.659C555.222 113.023 555.921 112.341 557.2 112.341C558.433 112.341 559.04 112.994 559.04 114.114V114.159C559.04 114.807 558.381 114.75 556.79 114.955C555.171 115.165 553.404 115.523 553.404 117.523C553.404 119.227 554.722 120.205 556.381 120.205ZM556.586 119C555.518 119 554.745 118.523 554.745 117.591C554.745 116.568 555.677 116.25 556.722 116.114C557.29 116.045 558.813 115.886 559.04 115.614V116.841C559.04 117.932 558.177 119 556.586 119ZM564.17 118.023V111.273H562.829V120H564.397L568.579 113.25V120H569.92V111.273H568.374L564.17 118.023ZM567.488 108.364C567.488 108.955 567.17 109.477 566.374 109.477C565.579 109.477 565.283 108.955 565.283 108.364H564.033C564.033 109.591 564.942 110.455 566.374 110.455C567.829 110.455 568.738 109.591 568.738 108.364H567.488ZM571.188 112.523H574.075V120H575.415V112.523H578.279V111.273H571.188V112.523ZM583.441 120.182C585.214 120.182 586.509 119.295 586.918 117.977L585.623 117.614C585.282 118.523 584.492 118.977 583.441 118.977C581.867 118.977 580.782 117.96 580.719 116.091H587.055V115.523C587.055 112.273 585.123 111.159 583.305 111.159C580.941 111.159 579.373 113.023 579.373 115.705C579.373 118.386 580.918 120.182 583.441 120.182ZM580.719 114.932C580.81 113.574 581.771 112.364 583.305 112.364C584.759 112.364 585.691 113.455 585.691 114.932H580.719ZM592.663 122.5H594.004V120H600.458V122.5H601.799V118.75H600.458V111.273H594.913L594.617 114.727C594.407 117.17 594.094 118.011 593.39 118.75H592.663V122.5ZM594.913 118.75C595.526 117.943 595.748 116.551 595.935 114.727L596.163 112.523H599.117V118.75H594.913ZM603.579 120H607.692C609.465 120 610.533 119 610.533 117.659C610.533 116.29 609.494 115.551 608.533 115.409C609.516 115.205 610.215 114.653 610.215 113.591C610.215 112.199 609.022 111.273 607.147 111.273H603.579V120ZM604.852 118.773V116.091H607.692C608.613 116.091 609.17 116.642 609.17 117.545C609.17 118.307 608.613 118.773 607.692 118.773H604.852ZM604.852 114.932V112.5H607.147C608.221 112.5 608.874 112.949 608.874 113.682C608.874 114.46 608.221 114.932 607.147 114.932H604.852ZM613.904 118.023V111.273H612.563V120H614.131L618.313 113.25V120H619.654V111.273H618.109L613.904 118.023ZM621.565 120H623.178L626.156 116.25H626.837V120H628.178V116.25H628.86L631.815 120H633.428L629.906 115.568L633.383 111.273H631.792L628.883 115H628.178V111.273H626.837V115H626.11L623.201 111.273H621.61L625.11 115.568L621.565 120ZM638.644 120.182C640.417 120.182 641.712 119.295 642.121 117.977L640.826 117.614C640.485 118.523 639.695 118.977 638.644 118.977C637.07 118.977 635.985 117.96 635.923 116.091H642.258V115.523C642.258 112.273 640.326 111.159 638.508 111.159C636.144 111.159 634.576 113.023 634.576 115.705C634.576 118.386 636.121 120.182 638.644 120.182ZM635.923 114.932C636.013 113.574 636.974 112.364 638.508 112.364C639.962 112.364 640.894 113.455 640.894 114.932H635.923ZM645.638 111.273H644.298V120H645.638V116.273H649.82V120H651.161V111.273H649.82V115.023H645.638V111.273ZM654.951 118.023V111.273H653.61V120H655.178L659.36 113.25V120H660.701V111.273H659.156L654.951 118.023ZM666.816 120.182C668.589 120.182 669.884 119.295 670.293 117.977L668.998 117.614C668.657 118.523 667.867 118.977 666.816 118.977C665.242 118.977 664.157 117.96 664.094 116.091H670.43V115.523C670.43 112.273 668.498 111.159 666.68 111.159C664.316 111.159 662.748 113.023 662.748 115.705C662.748 118.386 664.293 120.182 666.816 120.182ZM664.094 114.932C664.185 113.574 665.146 112.364 666.68 112.364C668.134 112.364 669.066 113.455 669.066 114.932H664.094ZM372.648 144.182C374.58 144.182 375.852 143 376.08 141.455H374.739C374.489 142.409 373.693 142.977 372.648 142.977C371.057 142.977 370.034 141.659 370.034 139.636C370.034 137.659 371.08 136.364 372.648 136.364C373.83 136.364 374.534 137.091 374.739 137.886H376.08C375.852 136.25 374.466 135.159 372.625 135.159C370.261 135.159 368.693 137.023 368.693 139.682C368.693 142.295 370.193 144.182 372.648 144.182ZM377.352 136.523H380.239V144H381.58V136.523H384.443V135.273H377.352V136.523ZM386.399 147.273H387.74V142.659H387.854C388.149 143.136 388.717 144.182 390.399 144.182C392.581 144.182 394.104 142.432 394.104 139.659C394.104 136.909 392.581 135.159 390.376 135.159C388.672 135.159 388.149 136.205 387.854 136.659H387.695V135.273H386.399V147.273ZM387.717 139.636C387.717 137.682 388.581 136.364 390.217 136.364C391.922 136.364 392.763 137.795 392.763 139.636C392.763 141.5 391.899 142.977 390.217 142.977C388.604 142.977 387.717 141.614 387.717 139.636ZM399.695 144.182C402.058 144.182 403.649 142.386 403.649 139.682C403.649 136.955 402.058 135.159 399.695 135.159C397.331 135.159 395.74 136.955 395.74 139.682C395.74 142.386 397.331 144.182 399.695 144.182ZM399.695 142.977C397.899 142.977 397.081 141.432 397.081 139.682C397.081 137.932 397.899 136.364 399.695 136.364C401.49 136.364 402.308 137.932 402.308 139.682C402.308 141.432 401.49 142.977 399.695 142.977ZM407.037 142.023V135.273H405.696V144H407.264L411.446 137.25V144H412.787V135.273H411.241L407.037 142.023ZM410.355 132.364C410.355 132.955 410.037 133.477 409.241 133.477C408.446 133.477 408.151 132.955 408.151 132.364H406.901C406.901 133.591 407.81 134.455 409.241 134.455C410.696 134.455 411.605 133.591 411.605 132.364H410.355ZM420.016 142.182L417.016 135.273H415.243V144H416.584V137.199L419.47 144H420.561L423.447 137.324V144H424.788V135.273H423.061L420.016 142.182ZM429.811 144.205C431.334 144.205 432.129 143.386 432.402 142.818H432.47V144H433.811V138.25C433.811 135.477 431.697 135.159 430.584 135.159C429.266 135.159 427.766 135.614 427.084 137.205L428.357 137.659C428.652 137.023 429.351 136.341 430.629 136.341C431.862 136.341 432.47 136.994 432.47 138.114V138.159C432.47 138.807 431.811 138.75 430.22 138.955C428.601 139.165 426.834 139.523 426.834 141.523C426.834 143.227 428.152 144.205 429.811 144.205ZM430.016 143C428.947 143 428.175 142.523 428.175 141.591C428.175 140.568 429.107 140.25 430.152 140.114C430.72 140.045 432.243 139.886 432.47 139.614V140.841C432.47 141.932 431.607 143 430.016 143ZM435.071 136.523H437.957V144H439.298V136.523H442.162V135.273H435.071V136.523ZM447.324 144.182C449.097 144.182 450.392 143.295 450.801 141.977L449.506 141.614C449.165 142.523 448.375 142.977 447.324 142.977C445.75 142.977 444.665 141.96 444.602 140.091H450.938V139.523C450.938 136.273 449.006 135.159 447.188 135.159C444.824 135.159 443.256 137.023 443.256 139.705C443.256 142.386 444.801 144.182 447.324 144.182ZM444.602 138.932C444.693 137.574 445.653 136.364 447.188 136.364C448.642 136.364 449.574 137.455 449.574 138.932H444.602ZM452.977 147.273H454.318V142.659H454.432C454.727 143.136 455.295 144.182 456.977 144.182C459.159 144.182 460.682 142.432 460.682 139.659C460.682 136.909 459.159 135.159 456.955 135.159C455.25 135.159 454.727 136.205 454.432 136.659H454.273V135.273H452.977V147.273ZM454.295 139.636C454.295 137.682 455.159 136.364 456.795 136.364C458.5 136.364 459.341 137.795 459.341 139.636C459.341 141.5 458.477 142.977 456.795 142.977C455.182 142.977 454.295 141.614 454.295 139.636ZM464.068 142.023V135.273H462.727V144H464.295L468.477 137.25V144H469.818V135.273H468.273L464.068 142.023ZM474.842 144.205C476.365 144.205 477.161 143.386 477.433 142.818H477.501V144H478.842V138.25C478.842 135.477 476.729 135.159 475.615 135.159C474.297 135.159 472.797 135.614 472.115 137.205L473.388 137.659C473.683 137.023 474.382 136.341 475.661 136.341C476.893 136.341 477.501 136.994 477.501 138.114V138.159C477.501 138.807 476.842 138.75 475.251 138.955C473.632 139.165 471.865 139.523 471.865 141.523C471.865 143.227 473.183 144.205 474.842 144.205ZM475.047 143C473.979 143 473.206 142.523 473.206 141.591C473.206 140.568 474.138 140.25 475.183 140.114C475.751 140.045 477.274 139.886 477.501 139.614V140.841C477.501 141.932 476.638 143 475.047 143ZM480.517 144H480.972C482.903 144 483.46 142.5 483.585 139.636L483.722 136.523H486.926V144H488.267V135.273H482.449L482.29 139.136C482.176 142.068 481.881 142.75 480.835 142.75H480.517V144ZM494.273 144.182C496.636 144.182 498.227 142.386 498.227 139.682C498.227 136.955 496.636 135.159 494.273 135.159C491.909 135.159 490.318 136.955 490.318 139.682C490.318 142.386 491.909 144.182 494.273 144.182ZM494.273 142.977C492.477 142.977 491.659 141.432 491.659 139.682C491.659 137.932 492.477 136.364 494.273 136.364C496.068 136.364 496.886 137.932 496.886 139.682C496.886 141.432 496.068 142.977 494.273 142.977ZM500.274 144H504.388C506.161 144 507.229 143 507.229 141.659C507.229 140.29 506.189 139.551 505.229 139.409C506.212 139.205 506.911 138.653 506.911 137.591C506.911 136.199 505.717 135.273 503.842 135.273H500.274V144ZM501.547 142.773V140.091H504.388C505.308 140.091 505.865 140.642 505.865 141.545C505.865 142.307 505.308 142.773 504.388 142.773H501.547ZM501.547 138.932V136.5H503.842C504.916 136.5 505.57 136.949 505.57 137.682C505.57 138.46 504.916 138.932 503.842 138.932H501.547ZM511.259 142.409H509.804L509.736 143.045C509.571 144.585 509.247 146.119 509.099 146.841H510.122C510.395 146.068 510.974 144.318 511.168 143.023L511.259 142.409ZM524.97 135.273H523.629V139.699C522.982 139.886 522.317 140 521.516 140C520.425 140 519.584 139.386 519.584 138.045V135.25H518.243V138.045C518.243 140.182 519.538 141.25 521.516 141.25C522.339 141.25 522.999 141.142 523.629 140.955V144H524.97V135.273ZM526.243 136.523H529.129V144H530.47V136.523H533.334V135.273H526.243V136.523ZM538.382 144.182C540.746 144.182 542.337 142.386 542.337 139.682C542.337 136.955 540.746 135.159 538.382 135.159C536.018 135.159 534.428 136.955 534.428 139.682C534.428 142.386 536.018 144.182 538.382 144.182ZM538.382 142.977C536.587 142.977 535.768 141.432 535.768 139.682C535.768 137.932 536.587 136.364 538.382 136.364C540.178 136.364 540.996 137.932 540.996 139.682C540.996 141.432 540.178 142.977 538.382 142.977ZM550.861 132C550.435 132.358 549.798 132.358 548.906 132.352C548.616 132.352 548.298 132.352 547.952 132.364C545.293 132.432 543.974 134.455 543.974 138.341V139.273C543.974 142.5 545.543 144.182 547.884 144.182C550.219 144.182 551.77 142.489 551.77 139.75C551.77 137 550.196 135.545 548.156 135.545C546.957 135.545 545.838 136.045 545.247 137.136H545.134C545.315 134.886 546.156 133.682 547.974 133.614C549.588 133.545 550.747 133.591 551.543 132.818L550.861 132ZM547.884 142.977C546.293 142.977 545.315 141.705 545.315 139.75C545.344 137.841 546.304 136.75 547.861 136.75C549.457 136.75 550.429 137.841 550.429 139.75C550.429 141.716 549.463 142.977 547.884 142.977ZM555.162 138.432V135.273H553.821V144H557.48C559.526 144 560.639 142.75 560.639 141.182C560.639 139.591 559.526 138.432 557.48 138.432H555.162ZM562.026 144H563.366V135.273H562.026V144ZM555.162 139.682H557.48C558.543 139.682 559.298 140.33 559.298 141.25C559.298 142.131 558.543 142.75 557.48 142.75H555.162V139.682ZM571.662 142.023V135.273H570.321V144H571.889L576.071 137.25V144H577.412V135.273H575.866L571.662 142.023ZM579.322 141.773C579.368 143.205 580.737 144.182 582.595 144.182C584.504 144.182 585.891 143.159 585.891 141.568C585.891 140.477 585.237 139.591 584.254 139.523V139.432C585.084 139.176 585.709 138.574 585.709 137.591C585.709 136.21 584.527 135.159 582.686 135.159C580.868 135.159 579.572 136.159 579.527 137.568H580.936C580.976 136.847 581.732 136.341 582.754 136.341C583.771 136.341 584.345 136.858 584.345 137.636C584.345 138.364 583.845 138.909 582.777 138.909H581.277V140.114H582.777C583.845 140.114 584.527 140.699 584.527 141.568C584.527 142.562 583.646 142.977 582.572 142.977C581.521 142.977 580.817 142.562 580.754 141.773H579.322ZM594.251 132C593.825 132.358 593.189 132.358 592.297 132.352C592.007 132.352 591.689 132.352 591.342 132.364C588.683 132.432 587.365 134.455 587.365 138.341V139.273C587.365 142.5 588.933 144.182 591.274 144.182C593.609 144.182 595.161 142.489 595.161 139.75C595.161 137 593.587 135.545 591.547 135.545C590.348 135.545 589.229 136.045 588.638 137.136H588.524C588.706 134.886 589.547 133.682 591.365 133.614C592.979 133.545 594.138 133.591 594.933 132.818L594.251 132ZM591.274 142.977C589.683 142.977 588.706 141.705 588.706 139.75C588.734 137.841 589.695 136.75 591.251 136.75C592.848 136.75 593.82 137.841 593.82 139.75C593.82 141.716 592.854 142.977 591.274 142.977ZM600.871 144.182C602.643 144.182 603.939 143.295 604.348 141.977L603.053 141.614C602.712 142.523 601.922 142.977 600.871 142.977C599.297 142.977 598.212 141.96 598.149 140.091H604.484V139.523C604.484 136.273 602.553 135.159 600.734 135.159C598.371 135.159 596.803 137.023 596.803 139.705C596.803 142.386 598.348 144.182 600.871 144.182ZM598.149 138.932C598.24 137.574 599.2 136.364 600.734 136.364C602.189 136.364 603.121 137.455 603.121 138.932H598.149ZM605.744 144H607.358L610.335 140.25H611.017V144H612.358V140.25H613.04L615.994 144H617.608L614.085 139.568L617.562 135.273H615.972L613.062 139H612.358V135.273H611.017V139H610.29L607.381 135.273H605.79L609.29 139.568L605.744 144ZM622.092 144.205C623.615 144.205 624.411 143.386 624.683 142.818H624.751V144H626.092V138.25C626.092 135.477 623.979 135.159 622.865 135.159C621.547 135.159 620.047 135.614 619.365 137.205L620.638 137.659C620.933 137.023 621.632 136.341 622.911 136.341C624.143 136.341 624.751 136.994 624.751 138.114V138.159C624.751 138.807 624.092 138.75 622.501 138.955C620.882 139.165 619.115 139.523 619.115 141.523C619.115 143.227 620.433 144.205 622.092 144.205ZM622.297 143C621.229 143 620.456 142.523 620.456 141.591C620.456 140.568 621.388 140.25 622.433 140.114C623.001 140.045 624.524 139.886 624.751 139.614V140.841C624.751 141.932 623.888 143 622.297 143ZM627.352 136.523H630.239V144H631.58V136.523H634.443V135.273H627.352V136.523ZM637.74 138.432V135.273H636.399V144H640.058C642.104 144 643.217 142.75 643.217 141.182C643.217 139.591 642.104 138.432 640.058 138.432H637.74ZM637.74 139.682H640.058C641.121 139.682 641.876 140.33 641.876 141.25C641.876 142.131 641.121 142.75 640.058 142.75H637.74V139.682ZM649.759 144H651.099V140.318H652.304L655.168 144H656.895L653.327 139.477L656.849 135.273H655.122L651.986 139.068H651.099V135.273H649.759V144ZM658.352 147.273H659.693V142.659H659.807C660.102 143.136 660.67 144.182 662.352 144.182C664.534 144.182 666.057 142.432 666.057 139.659C666.057 136.909 664.534 135.159 662.33 135.159C660.625 135.159 660.102 136.205 659.807 136.659H659.648V135.273H658.352V147.273ZM659.67 139.636C659.67 137.682 660.534 136.364 662.17 136.364C663.875 136.364 664.716 137.795 664.716 139.636C664.716 141.5 663.852 142.977 662.17 142.977C660.557 142.977 659.67 141.614 659.67 139.636ZM670.67 144.205C672.193 144.205 672.989 143.386 673.261 142.818H673.33V144H674.67V138.25C674.67 135.477 672.557 135.159 671.443 135.159C670.125 135.159 668.625 135.614 667.943 137.205L669.216 137.659C669.511 137.023 670.21 136.341 671.489 136.341C672.722 136.341 673.33 136.994 673.33 138.114V138.159C673.33 138.807 672.67 138.75 671.08 138.955C669.46 139.165 667.693 139.523 667.693 141.523C667.693 143.227 669.011 144.205 670.67 144.205ZM670.875 143C669.807 143 669.034 142.523 669.034 141.591C669.034 140.568 669.966 140.25 671.011 140.114C671.58 140.045 673.102 139.886 673.33 139.614V140.841C673.33 141.932 672.466 143 670.875 143ZM676.572 144H678.186L681.163 140.25H681.845V144H683.186V140.25H683.868L686.822 144H688.436L684.913 139.568L688.391 135.273H686.8L683.891 139H683.186V135.273H681.845V139H681.118L678.209 135.273H676.618L680.118 139.568L676.572 144ZM468.037 166.023V159.273H466.696V168H468.264L472.446 161.25V168H473.787V159.273H472.241L468.037 166.023ZM480.743 168H482.084V160.523H486.266V168H487.607V159.273H480.743V168ZM493.601 168.182C495.964 168.182 497.555 166.386 497.555 163.682C497.555 160.955 495.964 159.159 493.601 159.159C491.237 159.159 489.646 160.955 489.646 163.682C489.646 166.386 491.237 168.182 493.601 168.182ZM493.601 166.977C491.805 166.977 490.987 165.432 490.987 163.682C490.987 161.932 491.805 160.364 493.601 160.364C495.396 160.364 496.214 161.932 496.214 163.682C496.214 165.432 495.396 166.977 493.601 166.977ZM499.602 168H503.716C505.489 168 506.557 167 506.557 165.659C506.557 164.29 505.517 163.551 504.557 163.409C505.54 163.205 506.239 162.653 506.239 161.591C506.239 160.199 505.045 159.273 503.17 159.273H499.602V168ZM500.875 166.773V164.091H503.716C504.636 164.091 505.193 164.642 505.193 165.545C505.193 166.307 504.636 166.773 503.716 166.773H500.875ZM500.875 162.932V160.5H503.17C504.244 160.5 504.898 160.949 504.898 161.682C504.898 162.46 504.244 162.932 503.17 162.932H500.875ZM508.587 171.273H509.928V166.659H510.041C510.337 167.136 510.905 168.182 512.587 168.182C514.768 168.182 516.291 166.432 516.291 163.659C516.291 160.909 514.768 159.159 512.564 159.159C510.859 159.159 510.337 160.205 510.041 160.659H509.882V159.273H508.587V171.273ZM509.905 163.636C509.905 161.682 510.768 160.364 512.405 160.364C514.109 160.364 514.95 161.795 514.95 163.636C514.95 165.5 514.087 166.977 512.405 166.977C510.791 166.977 509.905 165.614 509.905 163.636ZM521.996 168.182C523.768 168.182 525.064 167.295 525.473 165.977L524.178 165.614C523.837 166.523 523.047 166.977 521.996 166.977C520.422 166.977 519.337 165.96 519.274 164.091H525.609V163.523C525.609 160.273 523.678 159.159 521.859 159.159C519.496 159.159 517.928 161.023 517.928 163.705C517.928 166.386 519.473 168.182 521.996 168.182ZM519.274 162.932C519.365 161.574 520.325 160.364 521.859 160.364C523.314 160.364 524.246 161.455 524.246 162.932H519.274ZM526.869 168H528.483L531.46 164.25H532.142V168H533.483V164.25H534.165L537.119 168H538.733L535.21 163.568L538.688 159.273H537.097L534.188 163H533.483V159.273H532.142V163H531.415L528.506 159.273H526.915L530.415 163.568L526.869 168ZM539.717 170.5H541.058V168H547.513V170.5H548.854V166.75H547.513V159.273H541.967L541.672 162.727C541.462 165.17 541.149 166.011 540.445 166.75H539.717V170.5ZM541.967 166.75C542.581 165.943 542.803 164.551 542.99 162.727L543.217 160.523H546.172V166.75H541.967ZM554.293 168.182C556.065 168.182 557.361 167.295 557.77 165.977L556.474 165.614C556.134 166.523 555.344 166.977 554.293 166.977C552.719 166.977 551.634 165.96 551.571 164.091H557.906V163.523C557.906 160.273 555.974 159.159 554.156 159.159C551.793 159.159 550.224 161.023 550.224 163.705C550.224 166.386 551.77 168.182 554.293 168.182ZM551.571 162.932C551.662 161.574 552.622 160.364 554.156 160.364C555.611 160.364 556.543 161.455 556.543 162.932H551.571ZM561.287 159.273H559.946V168H561.287V164.273H565.469V168H566.81V159.273H565.469V163.023H561.287V159.273ZM570.599 166.023V159.273H569.259V168H570.827L575.009 161.25V168H576.349V159.273H574.804L570.599 166.023ZM580.146 166.023V159.273H578.805V168H580.374L584.555 161.25V168H585.896V159.273H584.351L580.146 166.023ZM583.464 156.364C583.464 156.955 583.146 157.477 582.351 157.477C581.555 157.477 581.26 156.955 581.26 156.364H580.01C580.01 157.591 580.919 158.455 582.351 158.455C583.805 158.455 584.714 157.591 584.714 156.364H583.464ZM589.33 168.091C589.892 168.091 590.352 167.631 590.352 167.068C590.352 166.506 589.892 166.045 589.33 166.045C588.767 166.045 588.307 166.506 588.307 167.068C588.307 167.631 588.767 168.091 589.33 168.091Z" fill="#72787D"/>
<g clip-path="url(#clip2_2_8)">
<path d="M872.033 25.747C868.398 12.625 874.686 0 885.705 0C891.802 0 894.405 3.504 901.102 11.663C907.8 19.822 917.35 8.478 919 25.747C917.614 41.66 900.348 56.064 892.332 42.774C885.034 30.674 875.667 38.868 872.032 25.747H872.033Z" fill="#FFDD76"/>
<path d="M883.72 33H906.28C906.688 33 907 32.68 907 32.261V29.085C906.998 28.9256 906.946 28.7709 906.851 28.6427C906.757 28.5146 906.624 28.4195 906.472 28.371L905.8 28.174C905.68 28.149 905.608 28.026 905.608 27.903V24.647C905.608 20.559 903.328 16.792 899.776 14.97V14.748C899.776 13.788 899.008 13 898.072 13H891.928C890.992 13 890.224 13.788 890.224 14.748V14.97C886.672 16.817 884.392 20.56 884.392 24.647V27.903C884.392 27.9624 884.374 28.0204 884.339 28.0688C884.305 28.1172 884.256 28.1536 884.2 28.173L883.528 28.371C883.374 28.4163 883.24 28.5105 883.144 28.6394C883.049 28.7683 882.998 28.9247 883 29.085V32.261C883 32.68 883.336 33 883.72 33ZM884.44 29.651L884.584 29.601C884.942 29.4888 885.255 29.2667 885.479 28.9663C885.703 28.666 885.826 28.3027 885.832 27.928V24.672C885.832 21.397 887.536 18.368 890.224 16.694V20.067C890.224 20.486 890.536 20.806 890.944 20.806C891.352 20.806 891.664 20.486 891.664 20.067V14.772C891.664 14.625 891.784 14.502 891.928 14.502H898.072C898.143 14.5036 898.21 14.5327 898.259 14.5832C898.308 14.6336 898.336 14.7014 898.336 14.772V15.462C898.336 15.512 898.336 15.659 898.36 15.807V20.067C898.36 20.486 898.672 20.806 899.08 20.806C899.488 20.806 899.8 20.486 899.8 20.067V18.614C902.2 19.968 902.728 21.397 902.728 24.647V27.903C902.728 28.125 902.776 28.322 902.848 28.519H890.944C890.536 28.519 890.224 28.839 890.224 29.257C890.224 29.675 890.536 29.996 890.944 29.996H904.12V31.523H884.44V29.651Z" fill="#63522B"/>
</g>
<path d="M789.836 73.9091H780.069V87H781.654V75.3153H788.251V87H789.836V73.9091ZM796.818 87.2045C799.477 87.2045 801.266 85.1847 801.266 82.142C801.266 79.0739 799.477 77.054 796.818 77.054C794.158 77.054 792.369 79.0739 792.369 82.142C792.369 85.1847 794.158 87.2045 796.818 87.2045ZM796.818 85.8494C794.798 85.8494 793.877 84.1108 793.877 82.142C793.877 80.1733 794.798 78.4091 796.818 78.4091C798.837 78.4091 799.758 80.1733 799.758 82.142C799.758 84.1108 798.837 85.8494 796.818 85.8494ZM803.569 87H808.197C810.191 87 811.393 85.875 811.393 84.3665C811.393 82.826 810.223 81.995 809.143 81.8352C810.249 81.6051 811.035 80.9851 811.035 79.7898C811.035 78.2237 809.693 77.1818 807.583 77.1818H803.569V87ZM805.001 85.6193V82.6023H808.197C809.233 82.6023 809.859 83.2223 809.859 84.2386C809.859 85.0952 809.233 85.6193 808.197 85.6193H805.001ZM805.001 81.2983V78.5625H807.583C808.791 78.5625 809.527 79.0675 809.527 79.892C809.527 80.7678 808.791 81.2983 807.583 81.2983H805.001ZM815.185 80.7358V77.1818H813.677V87H817.793C820.094 87 821.347 85.5938 821.347 83.8295C821.347 82.0398 820.094 80.7358 817.793 80.7358H815.185ZM822.907 87H824.415V77.1818H822.907V87ZM815.185 82.142H817.793C818.988 82.142 819.839 82.8707 819.839 83.9062C819.839 84.897 818.988 85.5938 817.793 85.5938H815.185V82.142ZM827.177 77.1818V87H839.117V77.1818H837.608V85.5938H833.901V77.1818H832.392V85.5938H828.685V77.1818H827.177ZM845.988 87.2045C847.983 87.2045 849.44 86.2074 849.9 84.7244L848.443 84.3153C848.059 85.3381 847.171 85.8494 845.988 85.8494C844.218 85.8494 842.997 84.7053 842.927 82.6023H850.054V81.9631C850.054 78.3068 847.88 77.054 845.835 77.054C843.176 77.054 841.412 79.1506 841.412 82.1676C841.412 85.1847 843.15 87.2045 845.988 87.2045ZM842.927 81.2983C843.029 79.7706 844.109 78.4091 845.835 78.4091C847.471 78.4091 848.52 79.6364 848.52 81.2983H842.927ZM853.857 77.1818H852.348V87H853.857V82.8068H858.562V87H860.07V77.1818H858.562V81.4006H853.857V77.1818ZM864.334 84.7756V77.1818H862.825V87H864.589L869.294 79.4062V87H870.802V77.1818H869.064L864.334 84.7756ZM877.682 87.2045C879.676 87.2045 881.133 86.2074 881.594 84.7244L880.136 84.3153C879.753 85.3381 878.864 85.8494 877.682 85.8494C875.911 85.8494 874.69 84.7053 874.62 82.6023H881.747V81.9631C881.747 78.3068 879.574 77.054 877.528 77.054C874.869 77.054 873.105 79.1506 873.105 82.1676C873.105 85.1847 874.844 87.2045 877.682 87.2045ZM874.62 81.2983C874.722 79.7706 875.802 78.4091 877.528 78.4091C879.165 78.4091 880.213 79.6364 880.213 81.2983H874.62ZM896.391 73.5C895.912 73.9027 895.196 73.9027 894.192 73.8963C893.866 73.8963 893.508 73.8963 893.119 73.9091C890.127 73.9858 888.644 76.2614 888.644 80.6335V81.6818C888.644 85.3125 890.408 87.2045 893.042 87.2045C895.669 87.2045 897.414 85.2997 897.414 82.2188C897.414 79.125 895.643 77.4886 893.349 77.4886C892 77.4886 890.741 78.0511 890.076 79.2784H889.948C890.153 76.7472 891.099 75.392 893.144 75.3153C894.959 75.2386 896.263 75.2898 897.158 74.4205L896.391 73.5ZM893.042 85.8494C891.252 85.8494 890.153 84.4176 890.153 82.2188C890.185 80.071 891.265 78.8438 893.016 78.8438C894.812 78.8438 895.905 80.071 895.905 82.2188C895.905 84.4304 894.819 85.8494 893.042 85.8494ZM903.838 87.2045C905.832 87.2045 907.29 86.2074 907.75 84.7244L906.293 84.3153C905.909 85.3381 905.021 85.8494 903.838 85.8494C902.067 85.8494 900.847 84.7053 900.776 82.6023H907.903V81.9631C907.903 78.3068 905.73 77.054 903.685 77.054C901.025 77.054 899.261 79.1506 899.261 82.1676C899.261 85.1847 901 87.2045 903.838 87.2045ZM900.776 81.2983C900.878 79.7706 901.959 78.4091 903.685 78.4091C905.321 78.4091 906.369 79.6364 906.369 81.2983H900.776ZM909.584 84.4943C909.636 86.1051 911.176 87.2045 913.266 87.2045C915.414 87.2045 916.974 86.054 916.974 84.2642C916.974 83.0369 916.239 82.0398 915.133 81.9631V81.8608C916.066 81.5732 916.769 80.8956 916.769 79.7898C916.769 78.2365 915.44 77.054 913.369 77.054C911.323 77.054 909.866 78.179 909.815 79.7642H911.4C911.445 78.9524 912.295 78.3835 913.445 78.3835C914.589 78.3835 915.235 78.9652 915.235 79.8409C915.235 80.6591 914.672 81.2727 913.471 81.2727H911.783V82.6278H913.471C914.672 82.6278 915.44 83.2862 915.44 84.2642C915.44 85.3828 914.449 85.8494 913.241 85.8494C912.058 85.8494 911.266 85.3828 911.195 84.4943H909.584ZM923.081 87.2045C925.74 87.2045 927.53 85.1847 927.53 82.142C927.53 79.0739 925.74 77.054 923.081 77.054C920.422 77.054 918.632 79.0739 918.632 82.142C918.632 85.1847 920.422 87.2045 923.081 87.2045ZM923.081 85.8494C921.061 85.8494 920.141 84.1108 920.141 82.142C920.141 80.1733 921.061 78.4091 923.081 78.4091C925.101 78.4091 926.022 80.1733 926.022 82.142C926.022 84.1108 925.101 85.8494 923.081 85.8494ZM929.833 87H931.341V78.5881H936.046V87H937.554V77.1818H929.833V87ZM943.199 87.2301C944.912 87.2301 945.807 86.3097 946.113 85.6705H946.19V87H947.699V80.5312C947.699 77.4119 945.321 77.054 944.068 77.054C942.585 77.054 940.897 77.5653 940.13 79.3551L941.562 79.8665C941.895 79.1506 942.681 78.3835 944.119 78.3835C945.506 78.3835 946.19 79.1186 946.19 80.3778V80.429C946.19 81.1577 945.449 81.0938 943.659 81.3239C941.837 81.5604 939.849 81.9631 939.849 84.2131C939.849 86.1307 941.332 87.2301 943.199 87.2301ZM943.429 85.875C942.227 85.875 941.358 85.3381 941.358 84.2898C941.358 83.1392 942.406 82.7812 943.582 82.6278C944.221 82.5511 945.934 82.3722 946.19 82.0653V83.446C946.19 84.6733 945.218 85.875 943.429 85.875ZM954.441 87.2045C956.614 87.2045 958.046 85.875 958.301 84.1364H956.793C956.512 85.2102 955.617 85.8494 954.441 85.8494C952.651 85.8494 951.5 84.3665 951.5 82.0909C951.5 79.8665 952.676 78.4091 954.441 78.4091C955.77 78.4091 956.563 79.2273 956.793 80.1222H958.301C958.046 78.2812 956.486 77.054 954.415 77.054C951.756 77.054 949.992 79.1506 949.992 82.142C949.992 85.0824 951.679 87.2045 954.441 87.2045ZM962.015 77.1818H960.507V87H962.015V82.8068H966.72V87H968.228V77.1818H966.72V81.4006H962.015V77.1818ZM974.972 87.2045C977.631 87.2045 979.421 85.1847 979.421 82.142C979.421 79.0739 977.631 77.054 974.972 77.054C972.313 77.054 970.523 79.0739 970.523 82.142C970.523 85.1847 972.313 87.2045 974.972 87.2045ZM974.972 85.8494C972.952 85.8494 972.032 84.1108 972.032 82.142C972.032 80.1733 972.952 78.4091 974.972 78.4091C976.992 78.4091 977.912 80.1733 977.912 82.142C977.912 84.1108 976.992 85.8494 974.972 85.8494ZM985.712 87.2045C987.885 87.2045 989.317 85.875 989.573 84.1364H988.064C987.783 85.2102 986.888 85.8494 985.712 85.8494C983.922 85.8494 982.772 84.3665 982.772 82.0909C982.772 79.8665 983.948 78.4091 985.712 78.4091C987.042 78.4091 987.834 79.2273 988.064 80.1222H989.573C989.317 78.2812 987.758 77.054 985.687 77.054C983.027 77.054 981.263 79.1506 981.263 82.142C981.263 85.0824 982.951 87.2045 985.712 87.2045ZM991.005 78.5881H994.252V87H995.76V78.5881H998.982V77.1818H991.005V78.5881ZM1002.69 84.7756V77.1818H1001.18V87H1002.95L1007.65 79.4062V87H1009.16V77.1818H1007.42L1002.69 84.7756Z" fill="#212B31"/>
<path d="M756.227 114.182C756.227 110.5 754.068 108.205 751.091 108.205C748.114 108.205 745.955 110.5 745.955 114.182C745.955 117.864 748.114 120.159 751.091 120.159C754.068 120.159 756.227 117.864 756.227 114.182ZM754.864 114.182C754.864 117.205 753.205 118.841 751.091 118.841C748.977 118.841 747.318 117.205 747.318 114.182C747.318 111.159 748.977 109.523 751.091 109.523C753.205 109.523 754.864 111.159 754.864 114.182ZM764.892 108C764.466 108.358 763.83 108.358 762.938 108.352C762.648 108.352 762.33 108.352 761.983 108.364C759.324 108.432 758.006 110.455 758.006 114.341V115.273C758.006 118.5 759.574 120.182 761.915 120.182C764.25 120.182 765.801 118.489 765.801 115.75C765.801 113 764.227 111.545 762.188 111.545C760.989 111.545 759.869 112.045 759.278 113.136H759.165C759.347 110.886 760.188 109.682 762.006 109.614C763.619 109.545 764.778 109.591 765.574 108.818L764.892 108ZM761.915 118.977C760.324 118.977 759.347 117.705 759.347 115.75C759.375 113.841 760.335 112.75 761.892 112.75C763.489 112.75 764.46 113.841 764.46 115.75C764.46 117.716 763.494 118.977 761.915 118.977ZM771.511 120.182C773.284 120.182 774.58 119.295 774.989 117.977L773.693 117.614C773.352 118.523 772.562 118.977 771.511 118.977C769.938 118.977 768.852 117.96 768.79 116.091H775.125V115.523C775.125 112.273 773.193 111.159 771.375 111.159C769.011 111.159 767.443 113.023 767.443 115.705C767.443 118.386 768.989 120.182 771.511 120.182ZM768.79 114.932C768.881 113.574 769.841 112.364 771.375 112.364C772.83 112.364 773.761 113.455 773.761 114.932H768.79ZM780.71 120.182C782.642 120.182 783.915 119 784.142 117.455H782.801C782.551 118.409 781.756 118.977 780.71 118.977C779.119 118.977 778.097 117.659 778.097 115.636C778.097 113.659 779.142 112.364 780.71 112.364C781.892 112.364 782.597 113.091 782.801 113.886H784.142C783.915 112.25 782.528 111.159 780.688 111.159C778.324 111.159 776.756 113.023 776.756 115.682C776.756 118.295 778.256 120.182 780.71 120.182ZM786.102 120H787.443V112.523H791.625V120H792.966V111.273H786.102V120ZM799.074 120.182C800.847 120.182 802.142 119.295 802.551 117.977L801.256 117.614C800.915 118.523 800.125 118.977 799.074 118.977C797.5 118.977 796.415 117.96 796.352 116.091H802.688V115.523C802.688 112.273 800.756 111.159 798.938 111.159C796.574 111.159 795.006 113.023 795.006 115.705C795.006 118.386 796.551 120.182 799.074 120.182ZM796.352 114.932C796.443 113.574 797.403 112.364 798.938 112.364C800.392 112.364 801.324 113.455 801.324 114.932H796.352ZM811.455 111.273H810.114V115.699C809.466 115.886 808.801 116 808 116C806.909 116 806.068 115.386 806.068 114.045V111.25H804.727V114.045C804.727 116.182 806.023 117.25 808 117.25C808.824 117.25 809.483 117.142 810.114 116.955V120H811.455V111.273ZM815.256 114.432V111.273H813.915V120H817.574C819.619 120 820.733 118.75 820.733 117.182C820.733 115.591 819.619 114.432 817.574 114.432H815.256ZM815.256 115.682H817.574C818.636 115.682 819.392 116.33 819.392 117.25C819.392 118.131 818.636 118.75 817.574 118.75H815.256V115.682ZM821.368 112.523H824.254V120H825.595V112.523H828.459V111.273H821.368V112.523ZM833.621 120.182C835.393 120.182 836.689 119.295 837.098 117.977L835.803 117.614C835.462 118.523 834.672 118.977 833.621 118.977C832.047 118.977 830.962 117.96 830.899 116.091H837.234V115.523C837.234 112.273 835.303 111.159 833.484 111.159C831.121 111.159 829.553 113.023 829.553 115.705C829.553 118.386 831.098 120.182 833.621 120.182ZM830.899 114.932C830.99 113.574 831.95 112.364 833.484 112.364C834.939 112.364 835.871 113.455 835.871 114.932H830.899ZM843.229 117.773C843.274 119.205 844.643 120.182 846.501 120.182C848.411 120.182 849.797 119.159 849.797 117.568C849.797 116.477 849.143 115.591 848.161 115.523V115.432C848.99 115.176 849.615 114.574 849.615 113.591C849.615 112.21 848.433 111.159 846.592 111.159C844.774 111.159 843.479 112.159 843.433 113.568H844.842C844.882 112.847 845.638 112.341 846.661 112.341C847.678 112.341 848.251 112.858 848.251 113.636C848.251 114.364 847.751 114.909 846.683 114.909H845.183V116.114H846.683C847.751 116.114 848.433 116.699 848.433 117.568C848.433 118.562 847.553 118.977 846.479 118.977C845.428 118.977 844.723 118.562 844.661 117.773H843.229ZM850.749 122.5H852.089V120H858.544V122.5H859.885V118.75H858.544V111.273H852.999L852.703 114.727C852.493 117.17 852.18 118.011 851.476 118.75H850.749V122.5ZM852.999 118.75C853.612 117.943 853.834 116.551 854.021 114.727L854.249 112.523H857.203V118.75H852.999ZM865.21 120.182C867.574 120.182 869.165 118.386 869.165 115.682C869.165 112.955 867.574 111.159 865.21 111.159C862.847 111.159 861.256 112.955 861.256 115.682C861.256 118.386 862.847 120.182 865.21 120.182ZM865.21 118.977C863.415 118.977 862.597 117.432 862.597 115.682C862.597 113.932 863.415 112.364 865.21 112.364C867.006 112.364 867.824 113.932 867.824 115.682C867.824 117.432 867.006 118.977 865.21 118.977ZM871.212 123.273H872.553V118.659H872.666C872.962 119.136 873.53 120.182 875.212 120.182C877.393 120.182 878.916 118.432 878.916 115.659C878.916 112.909 877.393 111.159 875.189 111.159C873.484 111.159 872.962 112.205 872.666 112.659H872.507V111.273H871.212V123.273ZM872.53 115.636C872.53 113.682 873.393 112.364 875.03 112.364C876.734 112.364 877.575 113.795 877.575 115.636C877.575 117.5 876.712 118.977 875.03 118.977C873.416 118.977 872.53 117.614 872.53 115.636ZM884.507 120.182C886.871 120.182 888.462 118.386 888.462 115.682C888.462 112.955 886.871 111.159 884.507 111.159C882.143 111.159 880.553 112.955 880.553 115.682C880.553 118.386 882.143 120.182 884.507 120.182ZM884.507 118.977C882.712 118.977 881.893 117.432 881.893 115.682C881.893 113.932 882.712 112.364 884.507 112.364C886.303 112.364 887.121 113.932 887.121 115.682C887.121 117.432 886.303 118.977 884.507 118.977ZM890.509 120H894.622C896.395 120 897.463 119 897.463 117.659C897.463 116.29 896.423 115.551 895.463 115.409C896.446 115.205 897.145 114.653 897.145 113.591C897.145 112.199 895.952 111.273 894.077 111.273H890.509V120ZM891.781 118.773V116.091H894.622C895.543 116.091 896.099 116.642 896.099 117.545C896.099 118.307 895.543 118.773 894.622 118.773H891.781ZM891.781 114.932V112.5H894.077C895.151 112.5 895.804 112.949 895.804 113.682C895.804 114.46 895.151 114.932 894.077 114.932H891.781ZM900.834 114.432V111.273H899.493V120H903.152C905.197 120 906.311 118.75 906.311 117.182C906.311 115.591 905.197 114.432 903.152 114.432H900.834ZM900.834 115.682H903.152C904.214 115.682 904.97 116.33 904.97 117.25C904.97 118.131 904.214 118.75 903.152 118.75H900.834V115.682ZM912.011 120.182C913.784 120.182 915.08 119.295 915.489 117.977L914.193 117.614C913.852 118.523 913.062 118.977 912.011 118.977C910.438 118.977 909.352 117.96 909.29 116.091H915.625V115.523C915.625 112.273 913.693 111.159 911.875 111.159C909.511 111.159 907.943 113.023 907.943 115.705C907.943 118.386 909.489 120.182 912.011 120.182ZM909.29 114.932C909.381 113.574 910.341 112.364 911.875 112.364C913.33 112.364 914.261 113.455 914.261 114.932H909.29ZM923.506 118.023V111.273H922.165V120H923.733L927.915 113.25V120H929.256V111.273H927.71L923.506 118.023ZM942.689 108C942.263 108.358 941.626 108.358 940.734 108.352C940.445 108.352 940.126 108.352 939.78 108.364C937.121 108.432 935.803 110.455 935.803 114.341V115.273C935.803 118.5 937.371 120.182 939.712 120.182C942.047 120.182 943.598 118.489 943.598 115.75C943.598 113 942.024 111.545 939.984 111.545C938.786 111.545 937.666 112.045 937.075 113.136H936.962C937.143 110.886 937.984 109.682 939.803 109.614C941.416 109.545 942.575 109.591 943.371 108.818L942.689 108ZM939.712 118.977C938.121 118.977 937.143 117.705 937.143 115.75C937.172 113.841 938.132 112.75 939.689 112.75C941.286 112.75 942.257 113.841 942.257 115.75C942.257 117.716 941.291 118.977 939.712 118.977ZM944.876 120H945.331C947.263 120 947.82 118.5 947.945 115.636L948.081 112.523H951.286V120H952.626V111.273H946.808L946.649 115.136C946.536 118.068 946.24 118.75 945.195 118.75H944.876V120ZM957.655 120.205C959.178 120.205 959.973 119.386 960.246 118.818H960.314V120H961.655V114.25C961.655 111.477 959.541 111.159 958.428 111.159C957.109 111.159 955.609 111.614 954.928 113.205L956.2 113.659C956.496 113.023 957.195 112.341 958.473 112.341C959.706 112.341 960.314 112.994 960.314 114.114V114.159C960.314 114.807 959.655 114.75 958.064 114.955C956.445 115.165 954.678 115.523 954.678 117.523C954.678 119.227 955.996 120.205 957.655 120.205ZM957.859 119C956.791 119 956.018 118.523 956.018 117.591C956.018 116.568 956.95 116.25 957.996 116.114C958.564 116.045 960.087 115.886 960.314 115.614V116.841C960.314 117.932 959.45 119 957.859 119ZM969.489 111.273H964.102V120H965.443V112.523H969.489V111.273ZM974.538 120.182C976.902 120.182 978.493 118.386 978.493 115.682C978.493 112.955 976.902 111.159 974.538 111.159C972.175 111.159 970.584 112.955 970.584 115.682C970.584 118.386 972.175 120.182 974.538 120.182ZM974.538 118.977C972.743 118.977 971.925 117.432 971.925 115.682C971.925 113.932 972.743 112.364 974.538 112.364C976.334 112.364 977.152 113.932 977.152 115.682C977.152 117.432 976.334 118.977 974.538 118.977ZM980.54 120H981.881V112.523H986.062V120H987.403V111.273H980.54V120ZM993.398 120.182C995.761 120.182 997.352 118.386 997.352 115.682C997.352 112.955 995.761 111.159 993.398 111.159C991.034 111.159 989.443 112.955 989.443 115.682C989.443 118.386 991.034 120.182 993.398 120.182ZM993.398 118.977C991.602 118.977 990.784 117.432 990.784 115.682C990.784 113.932 991.602 112.364 993.398 112.364C995.193 112.364 996.011 113.932 996.011 115.682C996.011 117.432 995.193 118.977 993.398 118.977ZM998.626 120H999.081C1001.01 120 1001.57 118.5 1001.69 115.636L1001.83 112.523H1005.04V120H1006.38V111.273H1000.56L1000.4 115.136C1000.29 118.068 999.99 118.75 998.945 118.75H998.626V120ZM1009.39 123.273C1010.6 123.273 1011.45 122.631 1011.96 121.273L1015.67 111.295L1014.21 111.273L1011.8 118.227H1011.71L1009.3 111.273H1007.84L1011.07 120.045L1010.82 120.727C1010.33 122.057 1009.73 122.182 1008.75 121.932L1008.41 123.114C1008.55 123.182 1008.93 123.273 1009.39 123.273ZM1023.91 111.273H1022.57V115.699C1021.92 115.886 1021.25 116 1020.45 116C1019.36 116 1018.52 115.386 1018.52 114.045V111.25H1017.18V114.045C1017.18 116.182 1018.48 117.25 1020.45 117.25C1021.28 117.25 1021.94 117.142 1022.57 116.955V120H1023.91V111.273ZM1027.71 118.023V111.273H1026.37V120H1027.94L1032.12 113.25V120H1033.46V111.273H1031.91L1027.71 118.023ZM1039.57 120.182C1041.35 120.182 1042.64 119.295 1043.05 117.977L1041.76 117.614C1041.41 118.523 1040.62 118.977 1039.57 118.977C1038 118.977 1036.91 117.96 1036.85 116.091H1043.19V115.523C1043.19 112.273 1041.26 111.159 1039.44 111.159C1037.07 111.159 1035.51 113.023 1035.51 115.705C1035.51 118.386 1037.05 120.182 1039.57 120.182ZM1036.85 114.932C1036.94 113.574 1037.9 112.364 1039.44 112.364C1040.89 112.364 1041.82 113.455 1041.82 114.932H1036.85ZM732.759 144H733.214C735.146 144 735.702 142.5 735.827 139.636L735.964 136.523H739.168V144H740.509V135.273H734.691L734.532 139.136C734.418 142.068 734.123 142.75 733.077 142.75H732.759V144ZM743.674 135.273H742.333V144H743.674V140.341H745.913C746.151 142.676 747.668 144.182 749.833 144.182C752.197 144.182 753.788 142.386 753.788 139.682C753.788 136.955 752.197 135.159 749.833 135.159C747.646 135.159 746.117 136.699 745.907 139.091H743.674V135.273ZM749.833 142.977C748.038 142.977 747.219 141.432 747.219 139.682C747.219 137.932 748.038 136.364 749.833 136.364C751.629 136.364 752.447 137.932 752.447 139.682C752.447 141.432 751.629 142.977 749.833 142.977ZM755.038 146.5H756.379V144H762.833V146.5H764.174V142.75H762.833V135.273H757.288L756.992 138.727C756.782 141.17 756.469 142.011 755.765 142.75H755.038V146.5ZM757.288 142.75C757.901 141.943 758.123 140.551 758.31 138.727L758.538 136.523H761.492V142.75H757.288ZM769.613 144.182C771.386 144.182 772.681 143.295 773.09 141.977L771.795 141.614C771.454 142.523 770.664 142.977 769.613 142.977C768.039 142.977 766.954 141.96 766.891 140.091H773.227V139.523C773.227 136.273 771.295 135.159 769.477 135.159C767.113 135.159 765.545 137.023 765.545 139.705C765.545 142.386 767.09 144.182 769.613 144.182ZM766.891 138.932C766.982 137.574 767.942 136.364 769.477 136.364C770.931 136.364 771.863 137.455 771.863 138.932H766.891ZM776.607 142.023V135.273H775.266V144H776.835L781.016 137.25V144H782.357V135.273H780.812L776.607 142.023ZM779.925 132.364C779.925 132.955 779.607 133.477 778.812 133.477C778.016 133.477 777.721 132.955 777.721 132.364H776.471C776.471 133.591 777.38 134.455 778.812 134.455C780.266 134.455 781.175 133.591 781.175 132.364H779.925ZM786.813 142.409H785.359L785.29 143.045C785.126 144.585 784.802 146.119 784.654 146.841H785.677C785.95 146.068 786.529 144.318 786.722 143.023L786.813 142.409ZM793.798 147.273H795.138V142.659H795.252C795.548 143.136 796.116 144.182 797.798 144.182C799.979 144.182 801.502 142.432 801.502 139.659C801.502 136.909 799.979 135.159 797.775 135.159C796.07 135.159 795.548 136.205 795.252 136.659H795.093V135.273H793.798V147.273ZM795.116 139.636C795.116 137.682 795.979 136.364 797.616 136.364C799.32 136.364 800.161 137.795 800.161 139.636C800.161 141.5 799.298 142.977 797.616 142.977C796.002 142.977 795.116 141.614 795.116 139.636ZM806.116 144.205C807.638 144.205 808.434 143.386 808.707 142.818H808.775V144H810.116V138.25C810.116 135.477 808.002 135.159 806.888 135.159C805.57 135.159 804.07 135.614 803.388 137.205L804.661 137.659C804.957 137.023 805.656 136.341 806.934 136.341C808.167 136.341 808.775 136.994 808.775 138.114V138.159C808.775 138.807 808.116 138.75 806.525 138.955C804.906 139.165 803.138 139.523 803.138 141.523C803.138 143.227 804.457 144.205 806.116 144.205ZM806.32 143C805.252 143 804.479 142.523 804.479 141.591C804.479 140.568 805.411 140.25 806.457 140.114C807.025 140.045 808.548 139.886 808.775 139.614V140.841C808.775 141.932 807.911 143 806.32 143ZM819.04 132C818.614 132.358 817.978 132.358 817.086 132.352C816.796 132.352 816.478 132.352 816.131 132.364C813.472 132.432 812.154 134.455 812.154 138.341V139.273C812.154 142.5 813.722 144.182 816.063 144.182C818.398 144.182 819.95 142.489 819.95 139.75C819.95 137 818.376 135.545 816.336 135.545C815.137 135.545 814.018 136.045 813.427 137.136H813.313C813.495 134.886 814.336 133.682 816.154 133.614C817.768 133.545 818.927 133.591 819.722 132.818L819.04 132ZM816.063 142.977C814.472 142.977 813.495 141.705 813.495 139.75C813.523 137.841 814.484 136.75 816.04 136.75C817.637 136.75 818.609 137.841 818.609 139.75C818.609 141.716 817.643 142.977 816.063 142.977ZM825.546 144.182C827.91 144.182 829.501 142.386 829.501 139.682C829.501 136.955 827.91 135.159 825.546 135.159C823.183 135.159 821.592 136.955 821.592 139.682C821.592 142.386 823.183 144.182 825.546 144.182ZM825.546 142.977C823.751 142.977 822.933 141.432 822.933 139.682C822.933 137.932 823.751 136.364 825.546 136.364C827.342 136.364 828.16 137.932 828.16 139.682C828.16 141.432 827.342 142.977 825.546 142.977ZM830.407 136.523H833.293V144H834.634V136.523H837.498V135.273H830.407V136.523ZM841.569 144.205C843.092 144.205 843.887 143.386 844.16 142.818H844.228V144H845.569V138.25C845.569 135.477 843.455 135.159 842.342 135.159C841.023 135.159 839.523 135.614 838.842 137.205L840.114 137.659C840.41 137.023 841.109 136.341 842.387 136.341C843.62 136.341 844.228 136.994 844.228 138.114V138.159C844.228 138.807 843.569 138.75 841.978 138.955C840.359 139.165 838.592 139.523 838.592 141.523C838.592 143.227 839.91 144.205 841.569 144.205ZM841.773 143C840.705 143 839.933 142.523 839.933 141.591C839.933 140.568 840.864 140.25 841.91 140.114C842.478 140.045 844.001 139.886 844.228 139.614V140.841C844.228 141.932 843.364 143 841.773 143ZM848.721 135.273H847.38V144H848.721V140.341H850.96C851.198 142.676 852.715 144.182 854.88 144.182C857.244 144.182 858.835 142.386 858.835 139.682C858.835 136.955 857.244 135.159 854.88 135.159C852.692 135.159 851.164 136.699 850.954 139.091H848.721V135.273ZM854.88 142.977C853.085 142.977 852.266 141.432 852.266 139.682C852.266 137.932 853.085 136.364 854.88 136.364C856.675 136.364 857.494 137.932 857.494 139.682C857.494 141.432 856.675 142.977 854.88 142.977ZM872.925 142.75H871.63V135.273H870.289V142.75H866.994V135.273H865.653V142.75H862.357V135.273H861.016V144H871.38V146.5H872.766L872.925 142.75ZM876.217 142.023V135.273H874.876V144H876.444L880.626 137.25V144H881.967V135.273H880.421L876.217 142.023ZM885.423 135.273H883.877L886.65 139.636L883.877 144H885.423L887.513 140.614L889.604 144H891.15L888.332 139.636L891.15 135.273H889.604L887.513 138.841L885.423 135.273ZM898.904 135.273H897.563V144H898.904V140.273H903.086V144H904.427V135.273H903.086V139.023H898.904V135.273ZM909.444 144.205C910.967 144.205 911.762 143.386 912.035 142.818H912.103V144H913.444V138.25C913.444 135.477 911.33 135.159 910.217 135.159C908.898 135.159 907.398 135.614 906.717 137.205L907.989 137.659C908.285 137.023 908.984 136.341 910.262 136.341C911.495 136.341 912.103 136.994 912.103 138.114V138.159C912.103 138.807 911.444 138.75 909.853 138.955C908.234 139.165 906.467 139.523 906.467 141.523C906.467 143.227 907.785 144.205 909.444 144.205ZM909.648 143C908.58 143 907.808 142.523 907.808 141.591C907.808 140.568 908.739 140.25 909.785 140.114C910.353 140.045 911.876 139.886 912.103 139.614V140.841C912.103 141.932 911.239 143 909.648 143ZM920.391 144H924.505C926.278 144 927.346 143 927.346 141.659C927.346 140.29 926.306 139.551 925.346 139.409C926.329 139.205 927.028 138.653 927.028 137.591C927.028 136.199 925.835 135.273 923.96 135.273H920.391V144ZM921.664 142.773V140.091H924.505C925.425 140.091 925.982 140.642 925.982 141.545C925.982 142.307 925.425 142.773 924.505 142.773H921.664ZM921.664 138.932V136.5H923.96C925.033 136.5 925.687 136.949 925.687 137.682C925.687 138.46 925.033 138.932 923.96 138.932H921.664ZM931.944 144.205C933.467 144.205 934.262 143.386 934.535 142.818H934.603V144H935.944V138.25C935.944 135.477 933.83 135.159 932.717 135.159C931.398 135.159 929.898 135.614 929.217 137.205L930.489 137.659C930.785 137.023 931.484 136.341 932.762 136.341C933.995 136.341 934.603 136.994 934.603 138.114V138.159C934.603 138.807 933.944 138.75 932.353 138.955C930.734 139.165 928.967 139.523 928.967 141.523C928.967 143.227 930.285 144.205 931.944 144.205ZM932.148 143C931.08 143 930.308 142.523 930.308 141.591C930.308 140.568 931.239 140.25 932.285 140.114C932.853 140.045 934.376 139.886 934.603 139.614V140.841C934.603 141.932 933.739 143 932.148 143ZM938.391 135.273V144H949.005V135.273H947.664V142.75H944.369V135.273H943.028V142.75H939.732V135.273H938.391ZM955.113 144.182C956.886 144.182 958.181 143.295 958.59 141.977L957.295 141.614C956.954 142.523 956.164 142.977 955.113 142.977C953.539 142.977 952.454 141.96 952.391 140.091H958.727V139.523C958.727 136.273 956.795 135.159 954.977 135.159C952.613 135.159 951.045 137.023 951.045 139.705C951.045 142.386 952.59 144.182 955.113 144.182ZM952.391 138.932C952.482 137.574 953.442 136.364 954.977 136.364C956.431 136.364 957.363 137.455 957.363 138.932H952.391ZM962.107 142.023V135.273H960.766V144H962.335L966.516 137.25V144H967.857V135.273H966.312L962.107 142.023ZM965.425 132.364C965.425 132.955 965.107 133.477 964.312 133.477C963.516 133.477 963.221 132.955 963.221 132.364H961.971C961.971 133.591 962.88 134.455 964.312 134.455C965.766 134.455 966.675 133.591 966.675 132.364H965.425ZM974.813 144H976.154V136.523H980.336V144H981.677V135.273H974.813V144ZM983.353 144H983.808C985.739 144 986.296 142.5 986.421 139.636L986.558 136.523H989.762V144H991.103V135.273H985.285L985.126 139.136C985.012 142.068 984.717 142.75 983.671 142.75H983.353V144ZM997.109 144.182C999.472 144.182 1001.06 142.386 1001.06 139.682C1001.06 136.955 999.472 135.159 997.109 135.159C994.745 135.159 993.154 136.955 993.154 139.682C993.154 142.386 994.745 144.182 997.109 144.182ZM997.109 142.977C995.313 142.977 994.495 141.432 994.495 139.682C994.495 137.932 995.313 136.364 997.109 136.364C998.904 136.364 999.722 137.932 999.722 139.682C999.722 141.432 998.904 142.977 997.109 142.977ZM1015.02 142.75H1013.72V135.273H1012.38V142.75H1009.09V135.273H1007.75V142.75H1004.45V135.273H1003.11V144H1013.47V146.5H1014.86L1015.02 142.75ZM1019.54 144.205C1021.06 144.205 1021.86 143.386 1022.13 142.818H1022.2V144H1023.54V138.25C1023.54 135.477 1021.42 135.159 1020.31 135.159C1018.99 135.159 1017.49 135.614 1016.81 137.205L1018.08 137.659C1018.38 137.023 1019.08 136.341 1020.36 136.341C1021.59 136.341 1022.2 136.994 1022.2 138.114V138.159C1022.2 138.807 1021.54 138.75 1019.95 138.955C1018.33 139.165 1016.56 139.523 1016.56 141.523C1016.56 143.227 1017.88 144.205 1019.54 144.205ZM1019.74 143C1018.67 143 1017.9 142.523 1017.9 141.591C1017.9 140.568 1018.83 140.25 1019.88 140.114C1020.45 140.045 1021.97 139.886 1022.2 139.614V140.841C1022.2 141.932 1021.33 143 1019.74 143ZM1025.05 146.5H1026.39V144H1032.85V146.5H1034.19V142.75H1032.85V135.273H1027.3L1027.01 138.727C1026.8 141.17 1026.49 142.011 1025.78 142.75H1025.05V146.5ZM1027.3 142.75C1027.92 141.943 1028.14 140.551 1028.33 138.727L1028.55 136.523H1031.51V142.75H1027.3ZM1035.97 144H1037.31V140.318H1038.51L1041.38 144H1043.11L1039.54 139.477L1043.06 135.273H1041.33L1038.2 139.068H1037.31V135.273H1035.97V144ZM1047.86 144.182C1049.64 144.182 1050.93 143.295 1051.34 141.977L1050.04 141.614C1049.7 142.523 1048.91 142.977 1047.86 142.977C1046.29 142.977 1045.2 141.96 1045.14 140.091H1051.48V139.523C1051.48 136.273 1049.54 135.159 1047.73 135.159C1045.36 135.159 1043.79 137.023 1043.79 139.705C1043.79 142.386 1045.34 144.182 1047.86 144.182ZM1045.14 138.932C1045.23 137.574 1046.19 136.364 1047.73 136.364C1049.18 136.364 1050.11 137.455 1050.11 138.932H1045.14ZM1054.49 144.091C1055.06 144.091 1055.52 143.631 1055.52 143.068C1055.52 142.506 1055.06 142.045 1054.49 142.045C1053.93 142.045 1053.47 142.506 1053.47 143.068C1053.47 143.631 1053.93 144.091 1054.49 144.091Z" fill="#72787D"/>
<defs>
<clipPath id="clip0_2_8">
<rect width="48" height="48" fill="white" transform="translate(144)"/>
</clipPath>
<clipPath id="clip1_2_8">
<rect width="48" height="48" fill="white" transform="translate(505)"/>
</clipPath>
<clipPath id="clip2_2_8">
<rect width="48" height="48" fill="white" transform="translate(871)"/>
</clipPath>
</defs>
</svg>
