<svg width="24" height="24" viewBox="0 0 24 24" fill="none" xmlns="http://www.w3.org/2000/svg">
<path d="M20.754 0C20.43 0 20.182 0.25 20.182 0.576C20.182 0.902 20.43 1.152 20.754 1.152H21.287L14.865 7.642L9.167 1.901C9.11559 1.84652 9.05359 1.80312 8.98481 1.77346C8.91603 1.74379 8.84191 1.72849 8.767 1.72849C8.6921 1.72849 8.61798 1.74379 8.5492 1.77346C8.48041 1.80312 8.41842 1.84652 8.367 1.901L2.078 8.16C2.02387 8.21223 1.98081 8.27484 1.9514 8.34408C1.92199 8.41332 1.90684 8.48777 1.90684 8.563C1.90684 8.63823 1.92199 8.71268 1.9514 8.78192C1.98081 8.85116 2.02387 8.91377 2.078 8.966C2.12911 9.021 2.191 9.06487 2.25983 9.09488C2.32865 9.12488 2.40292 9.14036 2.478 9.14036C2.55308 9.14036 2.62735 9.12488 2.69618 9.09488C2.765 9.06487 2.8269 9.021 2.878 8.966L8.767 3.11L14.465 8.851C14.694 9.081 15.055 9.081 15.265 8.851L22.107 1.958V2.496C22.107 2.822 22.354 3.072 22.678 3.072C23.002 3.072 23.25 2.822 23.25 2.496V0.576C23.2502 0.460438 23.2159 0.347448 23.1514 0.25157C23.0869 0.155691 22.9951 0.0813108 22.888 0.0380001C22.8205 0.0143107 22.7496 0.00148459 22.678 0H22.659H20.754ZM19.058 9.408C18.9822 9.40691 18.907 9.42109 18.8369 9.4497C18.7667 9.47831 18.7031 9.52077 18.6497 9.57453C18.5963 9.62829 18.5543 9.69225 18.5262 9.7626C18.498 9.83296 18.4844 9.90825 18.486 9.984V23.424C18.486 23.75 18.734 24 19.058 24H22.488C22.812 24 23.059 23.75 23.059 23.424V9.984C23.0606 9.90834 23.047 9.83313 23.0189 9.76284C22.9909 9.69256 22.949 9.62863 22.8957 9.57489C22.8424 9.52114 22.7788 9.47867 22.7088 9.45C22.6388 9.42133 22.5637 9.40704 22.488 9.408H19.058ZM0.554003 9.908C0.477799 9.90779 0.402374 9.92333 0.332462 9.95365C0.262549 9.98397 0.199657 10.0284 0.147732 10.0842C0.0958069 10.14 0.0559696 10.2059 0.0307199 10.2778C0.0054702 10.3497 -0.00464671 10.426 0.00100341 10.502V10.579C0.00100341 10.886 0.268003 11.136 0.591003 11.136C0.914003 11.136 1.164 10.867 1.144 10.541V10.464C1.144 10.138 0.878003 9.907 0.554003 9.907V9.908ZM6.861 11.328C6.78533 11.327 6.71024 11.3413 6.6402 11.37C6.57016 11.3987 6.50661 11.4411 6.45333 11.4949C6.40005 11.5486 6.35813 11.6126 6.33007 11.6828C6.30201 11.7531 6.28839 11.8283 6.29 11.904V23.424C6.29 23.75 6.537 24 6.861 24H10.291C10.615 24 10.863 23.75 10.863 23.424V11.904C10.8646 11.8283 10.851 11.7531 10.8229 11.6828C10.7949 11.6126 10.753 11.5486 10.6997 11.4949C10.6464 11.4411 10.5828 11.3987 10.5128 11.37C10.4428 11.3413 10.3677 11.327 10.292 11.328H6.861ZM7.433 12.48H9.72V22.848H7.433V12.48ZM12.959 15.168C12.8833 15.167 12.8082 15.1813 12.7382 15.21C12.6682 15.2387 12.6046 15.2811 12.5513 15.3349C12.4981 15.3886 12.4561 15.4526 12.4281 15.5228C12.4 15.5931 12.3864 15.6683 12.388 15.744V23.424C12.388 23.75 12.635 24 12.959 24H16.389C16.714 24 16.961 23.75 16.961 23.424V15.744C16.9626 15.6683 16.949 15.5931 16.9209 15.5228C16.8929 15.4526 16.851 15.3886 16.7977 15.3349C16.7444 15.2811 16.6808 15.2387 16.6108 15.21C16.5408 15.1813 16.4657 15.167 16.39 15.168H12.959ZM13.531 16.32H15.818V22.848H13.531V16.32ZM0.763003 17.088C0.687329 17.087 0.612238 17.1013 0.5422 17.13C0.472162 17.1587 0.408611 17.2011 0.355332 17.2549C0.302052 17.3086 0.260134 17.3726 0.232074 17.4428C0.204014 17.5131 0.190387 17.5883 0.192003 17.664V23.424C0.192003 23.75 0.439003 24 0.763003 24H4.193C4.517 24 4.765 23.75 4.765 23.424V17.664C4.76662 17.5883 4.75296 17.513 4.72484 17.4426C4.69672 17.3722 4.65471 17.3083 4.60133 17.2545C4.54794 17.2008 4.48427 17.1583 4.41411 17.1297C4.34396 17.1011 4.26876 17.0869 4.193 17.088H0.763003ZM1.335 18.24H3.622V22.848H1.335V18.24Z" fill="#63522B"/>
</svg>
